<?xml version="1.0" encoding="UTF-8"?>
<svg width="193px" height="114px" viewBox="0 0 193 114" version="1.1" xmlns="http://www.w3.org/2000/svg" xmlns:xlink="http://www.w3.org/1999/xlink">
    <!-- Generator: Sketch 52.2 (67145) - http://www.bohemiancoding.com/sketch -->
    <title>bubble-right</title>
    <desc>Created with Sketch.</desc>
    <defs>
        <path d="M408.036575,138 C406.278785,138 403.208242,146.384673 396.456047,146.384673 C393.299962,146.384673 256.068583,146.384673 253.478309,146.384673 C251.540574,146.384673 249.193138,147.239325 247.39145,149.176134 C246.109384,150.554352 245.324426,152.253744 245.036575,154.274309 L245,236.955913 C245.082074,239.104643 245.867033,240.881133 247.354876,242.285383 C248.842718,243.689633 250.581612,244.391758 252.571557,244.391758 L420.870617,244.391758 C423.576549,244.235936 425.707074,243.533811 427.262191,242.285383 C428.817308,241.036955 429.729911,239.260465 430,236.955913 L430.036575,154.274309 C430.036575,152.134086 429.486961,150.434694 428.387732,149.176134 C426.738889,147.288293 424.180879,146.384673 421.836037,146.384673 C421.268651,146.384673 420.465972,146.384673 419.913068,146.384673 C413.345781,146.384673 409.673117,138 408.036575,138 Z" id="path-1"></path>
        <filter x="-4.3%" y="-11.3%" width="108.6%" height="115.0%" filterUnits="objectBoundingBox" id="filter-2">
            <feMorphology radius="0.5" operator="erode" in="SourceAlpha" result="shadowSpreadOuter1"></feMorphology>
            <feOffset dx="0" dy="-4" in="shadowSpreadOuter1" result="shadowOffsetOuter1"></feOffset>
            <feGaussianBlur stdDeviation="2.5" in="shadowOffsetOuter1" result="shadowBlurOuter1"></feGaussianBlur>
            <feComposite in="shadowBlurOuter1" in2="SourceAlpha" operator="out" result="shadowBlurOuter1"></feComposite>
            <feColorMatrix values="0 0 0 0 0   0 0 0 0 0   0 0 0 0 0  0 0 0 0.3 0" type="matrix" in="shadowBlurOuter1"></feColorMatrix>
        </filter>
    </defs>
    <g id="Page-1" stroke="none" stroke-width="1" fill="none" fill-rule="evenodd">
        <g id="Desktop" transform="translate(-897.000000, -893.000000)">
            <g id="bubbles" transform="translate(656.000000, 755.000000)">
                <g id="bubble-right" transform="translate(337.518287, 191.195879) rotate(180.000000) translate(-337.518287, -191.195879) ">
                    <use fill="black" fill-opacity="1" filter="url(#filter-2)" xlink:href="#path-1"></use>
                    <path stroke="#E0E0E0" stroke-width="1" d="M408.036575,138.5 C407.858686,138.5 407.458415,138.845812 406.82268,139.625959 C406.950894,139.468621 405.132111,141.792937 404.495747,142.521307 C402.033899,145.339093 399.546902,146.884673 396.456047,146.884673 C395.900023,146.884673 395.900023,146.884673 394.366133,146.884673 C392.375906,146.884673 392.375906,146.884673 389.538195,146.884673 C382.689334,146.884673 382.689334,146.884673 373.232832,146.884673 C351.190656,146.884673 351.190656,146.884673 324.976253,146.884673 C324.865626,146.884673 324.865626,146.884673 324.754999,146.884673 C298.494235,146.884673 298.494235,146.884673 276.467528,146.884673 C267.035315,146.884673 267.035315,146.884673 260.236127,146.884673 C257.428632,146.884673 257.428632,146.884673 255.476206,146.884673 C253.984118,146.884673 253.984118,146.884673 253.478309,146.884673 C251.493747,146.884673 249.33972,147.81585 247.757543,149.516686 C246.54657,150.81848 245.80533,152.423224 245.536575,154.274531 L245.499636,236.936829 C245.576778,238.956432 246.306854,240.608713 247.698067,241.921763 C249.093813,243.239091 250.71022,243.891758 252.571557,243.891758 L420.841872,243.892585 C423.450958,243.74234 425.482663,243.072782 426.949181,241.895479 C428.397287,240.732959 429.247996,239.076953 429.5,236.955692 L429.536575,154.274309 C429.536575,152.247992 429.024815,150.665645 428.011145,149.505045 C426.553191,147.835762 424.208413,146.884673 421.836037,146.884673 C421.539272,146.884673 421.539272,146.884673 421.208185,146.884673 C421.054761,146.884673 421.054761,146.884673 420.899642,146.884673 C420.373241,146.884673 420.373241,146.884673 419.913068,146.884673 C416.904499,146.884673 414.362169,145.339583 411.759152,142.532299 C411.325442,142.064555 410.910796,141.586903 410.398273,140.973579 C410.253259,140.800044 409.699355,140.132262 409.808951,140.264189 C409.585461,139.995162 409.428214,139.808112 409.280326,139.636416 C408.606709,138.854355 408.189595,138.5 408.036575,138.5 Z" stroke-linejoin="square" fill="#FFFFFF" fill-rule="evenodd"></path>
                </g>
            </g>
        </g>
    </g>
</svg>