<?xml version="1.0" encoding="UTF-8"?>
<svg width="193px" height="114px" viewBox="0 0 193 114" version="1.1" xmlns="http://www.w3.org/2000/svg" xmlns:xlink="http://www.w3.org/1999/xlink">
    <!-- Generator: Sketch 52.2 (67145) - http://www.bohemiancoding.com/sketch -->
    <title>bubble-right</title>
    <desc>Created with Sketch.</desc>
    <defs>
        <path d="M146.395997,138 C144.638355,138 141.628255,146.344346 134.876627,146.344346 C131.720806,146.344346 65.0310837,146.344346 62.4410264,146.344346 C60.5034543,146.344346 58.1562144,147.196001 56.3546782,149.126021 C55.0727195,150.499407 54.2878268,152.192841 54,154.206323 L54.0614935,236.938675 C54.1435609,239.079872 54.9284536,240.850133 56.4161717,242.24946 C57.9038897,243.648787 59.6426377,244.348451 61.6324158,244.348451 L229.91737,244.348451 C232.623075,244.193175 234.753421,243.493511 236.308408,242.24946 C237.863394,241.005409 238.775921,239.235147 239.045988,236.938675 L238.984494,154.206323 C238.984494,152.073603 238.434926,150.380169 237.335789,149.126021 C235.687085,147.244798 233.129289,146.344346 230.784644,146.344346 C230.217305,146.344346 158.884539,146.344346 158.331681,146.344346 C151.764945,146.344346 148.032402,138 146.395997,138 Z" id="path-1"></path>
        <filter x="-4.3%" y="-11.3%" width="108.6%" height="115.0%" filterUnits="objectBoundingBox" id="filter-2">
            <feMorphology radius="0.5" operator="erode" in="SourceAlpha" result="shadowSpreadOuter1"></feMorphology>
            <feOffset dx="0" dy="-4" in="shadowSpreadOuter1" result="shadowOffsetOuter1"></feOffset>
            <feGaussianBlur stdDeviation="2.5" in="shadowOffsetOuter1" result="shadowBlurOuter1"></feGaussianBlur>
            <feComposite in="shadowBlurOuter1" in2="SourceAlpha" operator="out" result="shadowBlurOuter1"></feComposite>
            <feColorMatrix values="0 0 0 0 0   0 0 0 0 0   0 0 0 0 0  0 0 0 0.3 0" type="matrix" in="shadowBlurOuter1"></feColorMatrix>
        </filter>
    </defs>
    <g id="Page-1" stroke="none" stroke-width="1" fill="none" fill-rule="evenodd">
        <g id="Desktop" transform="translate(-706.000000, -893.000000)">
            <g id="bubbles" transform="translate(656.000000, 755.000000)">
                <g id="bubble-right" transform="translate(146.522994, 191.174225) scale(-1, 1) rotate(-180.000000) translate(-146.522994, -191.174225) ">
                    <use fill="black" fill-opacity="1" filter="url(#filter-2)" xlink:href="#path-1"></use>
                    <path stroke="#E0E0E0" stroke-width="1" d="M146.395997,138.5 C146.218413,138.5 145.821825,138.843138 145.192276,139.618878 C145.319458,139.462162 143.517396,141.775447 142.886163,142.500488 C140.444026,145.30555 137.967287,146.844346 134.876627,146.844346 C134.459088,146.844346 134.459088,146.844346 133.580329,146.844346 C132.486335,146.844346 132.486335,146.844346 130.992616,146.844346 C127.451715,146.844346 127.451715,146.844346 122.680894,146.844346 C111.663349,146.844346 111.663349,146.844346 98.6779317,146.844346 C89.8668084,146.844346 89.8668084,146.844346 81.6704696,146.844346 C74.1844316,146.844346 74.1844316,146.844346 68.4867977,146.844346 C66.0840995,146.844346 66.0840995,146.844346 64.3500884,146.844346 C62.9873519,146.844346 62.9873519,146.844346 62.4410264,146.844346 C60.4562752,146.844346 58.3022041,147.772355 56.7201884,149.467198 C55.5095695,150.764157 54.768615,152.362793 54.4999999,154.205951 L54.5611266,236.919525 C54.6382322,238.931263 55.3679596,240.577104 56.75874,241.885253 C58.1543861,243.197978 59.7708881,243.848451 61.6324158,243.848451 L229.888723,243.849272 C232.497836,243.69954 234.529599,243.032253 235.996051,241.859034 C237.443767,240.700803 238.294111,239.051173 238.545988,236.939046 L238.484494,154.206323 C238.484494,152.187815 237.973002,150.611709 236.959762,149.455571 C235.501985,147.792203 233.157151,146.844346 230.784644,146.844346 C230.125413,146.844346 230.125413,146.844346 227.531218,146.844346 C224.107769,146.844346 224.107769,146.844346 219.302268,146.844346 C208.03287,146.844346 208.03287,146.844346 194.552732,146.844346 C181.073046,146.844346 181.073046,146.844346 169.805911,146.844346 C165.001881,146.844346 165.001881,146.844346 161.580355,146.844346 C158.98831,146.844346 158.98831,146.844346 158.331681,146.844346 C155.324671,146.844346 152.772662,145.307409 150.150443,142.514406 C149.713464,142.048967 149.295462,141.573655 148.778616,140.963324 C148.632374,140.79063 148.073728,140.126067 148.184258,140.257354 C147.958843,139.989606 147.800256,139.803442 147.65113,139.632552 C146.971031,138.853193 146.550763,138.5 146.395997,138.5 Z" stroke-linejoin="square" fill="#FFFFFF" fill-rule="evenodd"></path>
                </g>
            </g>
        </g>
    </g>
</svg>