<?xml version="1.0" encoding="UTF-8"?>
<svg width="193px" height="115px" viewBox="0 0 193 115" version="1.1" xmlns="http://www.w3.org/2000/svg" xmlns:xlink="http://www.w3.org/1999/xlink">
    <!-- Generator: Sketch 52.2 (67145) - http://www.bohemiancoding.com/sketch -->
    <title>bubble-right</title>
    <desc>Created with Sketch.</desc>
    <defs>
        <path d="M217.12005,261.615327 C215.36226,261.615327 212.291717,270 205.539522,270 C202.383437,270 65.1520584,270 62.561784,270 C60.6240495,270 58.2766128,270.854652 56.4749256,272.791461 C55.1928595,274.169679 54.4079009,275.869071 54.1200501,277.889637 L53.9133909,360.503476 C53.9954652,362.652206 54.7804238,364.428696 56.2682665,365.832946 C57.7561092,367.237196 59.495003,367.939321 61.4849479,367.939321 L229.784008,367.939321 C232.48994,367.783499 234.620465,367.081374 236.175582,365.832946 C237.730699,364.584518 238.643302,362.808028 238.913391,360.503476 L239.12005,277.889637 C239.12005,275.749414 238.570436,274.050022 237.471207,272.791461 C235.822364,270.903621 233.264354,270 230.919512,270 C230.352126,270 229.549447,270 228.996543,270 C222.429257,270 218.756592,261.615327 217.12005,261.615327 Z" id="path-1"></path>
        <filter x="-4.3%" y="-3.8%" width="108.6%" height="115.0%" filterUnits="objectBoundingBox" id="filter-2">
            <feMorphology radius="0.5" operator="erode" in="SourceAlpha" result="shadowSpreadOuter1"></feMorphology>
            <feOffset dx="0" dy="4" in="shadowSpreadOuter1" result="shadowOffsetOuter1"></feOffset>
            <feGaussianBlur stdDeviation="2.5" in="shadowOffsetOuter1" result="shadowBlurOuter1"></feGaussianBlur>
            <feComposite in="shadowBlurOuter1" in2="SourceAlpha" operator="out" result="shadowBlurOuter1"></feComposite>
            <feColorMatrix values="0 0 0 0 0   0 0 0 0 0   0 0 0 0 0  0 0 0 0.3 0" type="matrix" in="shadowBlurOuter1"></feColorMatrix>
        </filter>
    </defs>
    <g id="Page-1" stroke="none" stroke-width="1" fill="none" fill-rule="evenodd">
        <g id="Desktop" transform="translate(-706.000000, -1016.000000)">
            <g id="bubbles" transform="translate(656.000000, 755.000000)">
                <g id="bubble-right">
                    <use fill="black" fill-opacity="1" filter="url(#filter-2)" xlink:href="#path-1"></use>
                    <path stroke="#E0E0E0" stroke-width="1" d="M217.12005,262.115327 C216.942162,262.115327 216.54189,262.461139 215.906155,263.241287 C216.034369,263.083948 214.215586,265.408264 213.579222,266.136635 C211.117375,268.95442 208.630377,270.5 205.539522,270.5 C204.983498,270.5 204.983498,270.5 203.449608,270.5 C201.459381,270.5 201.459381,270.5 198.62167,270.5 C191.77281,270.5 191.77281,270.5 182.316307,270.5 C160.274131,270.5 160.274131,270.5 134.059728,270.5 C133.949101,270.5 133.949101,270.5 133.838474,270.5 C107.57771,270.5 107.57771,270.5 85.5510032,270.5 C76.1187904,270.5 76.1187904,270.5 69.319602,270.5 C66.5121067,270.5 66.5121067,270.5 64.5596813,270.5 C63.0675932,270.5 63.0675932,270.5 62.561784,270.5 C60.5772221,270.5 58.4231954,271.431177 56.8410186,273.132014 C55.6300455,274.433807 54.8888049,276.038552 54.6200485,277.890887 L54.4130266,360.484392 C54.4901687,362.503995 55.2202446,364.156276 56.6114575,365.469325 C58.0072041,366.786654 59.6236105,367.439321 61.4849479,367.439321 L229.755263,367.440148 C232.364349,367.289903 234.396053,366.620345 235.862572,365.443042 C237.310678,364.280522 238.161387,362.624516 238.413393,360.502226 L238.62005,277.889637 C238.62005,275.863319 238.10829,274.280972 237.094621,273.120373 C235.636666,271.45109 233.291889,270.5 230.919512,270.5 C230.622747,270.5 230.622747,270.5 230.29166,270.5 C230.138236,270.5 230.138236,270.5 229.983117,270.5 C229.456716,270.5 229.456716,270.5 228.996543,270.5 C225.987974,270.5 223.445644,268.95491 220.842627,266.147626 C220.408918,265.679883 219.994271,265.202231 219.481748,264.588906 C219.336734,264.415372 218.78283,263.74759 218.892426,263.879516 C218.668936,263.610489 218.51169,263.423439 218.363801,263.251743 C217.690184,262.469683 217.27307,262.115327 217.12005,262.115327 Z" stroke-linejoin="square" fill="#FFFFFF" fill-rule="evenodd"></path>
                </g>
            </g>
        </g>
    </g>
</svg>