<?xml version="1.0" encoding="UTF-8"?>
<svg width="193px" height="115px" viewBox="0 0 193 115" version="1.1" xmlns="http://www.w3.org/2000/svg" xmlns:xlink="http://www.w3.org/1999/xlink">
    <!-- Generator: Sketch 52.2 (67145) - http://www.bohemiancoding.com/sketch -->
    <title>bubble-right</title>
    <desc>Created with Sketch.</desc>
    <defs>
        <path d="M146.320558,0.655654464 C144.562915,0.655654464 141.552816,9 134.801187,9 C131.645367,9 64.9556443,9 62.365587,9 C60.4280149,9 58.0807749,9.85165567 56.2792387,11.781675 C54.99728,13.1550612 54.2123873,14.8484953 53.9245605,16.8619771 L54.0239286,99.590224 C54.105996,101.731421 54.8908887,103.501683 56.3786068,104.90101 C57.8663248,106.300337 59.6050728,107 61.5948509,107 L229.879805,107 C232.585529,106.844724 234.715885,106.145061 236.270871,104.90101 C237.825858,103.656959 238.738384,101.886697 239.008451,99.590224 L239.008451,16.8619771 C239.008451,14.7292573 238.458883,13.0358232 237.359746,11.781675 C235.711041,9.90045264 233.153246,9 230.808601,9 C230.241262,9 158.809099,9 158.256242,9 C151.689506,9 147.956963,0.655654464 146.320558,0.655654464 Z" id="path-1"></path>
        <filter x="-4.3%" y="-3.8%" width="108.6%" height="115.0%" filterUnits="objectBoundingBox" id="filter-2">
            <feMorphology radius="0.5" operator="erode" in="SourceAlpha" result="shadowSpreadOuter1"></feMorphology>
            <feOffset dx="0" dy="4" in="shadowSpreadOuter1" result="shadowOffsetOuter1"></feOffset>
            <feGaussianBlur stdDeviation="2.5" in="shadowOffsetOuter1" result="shadowBlurOuter1"></feGaussianBlur>
            <feComposite in="shadowBlurOuter1" in2="SourceAlpha" operator="out" result="shadowBlurOuter1"></feComposite>
            <feColorMatrix values="0 0 0 0 0   0 0 0 0 0   0 0 0 0 0  0 0 0 0.3 0" type="matrix" in="shadowBlurOuter1"></feColorMatrix>
        </filter>
    </defs>
    <g id="Page-1" stroke="none" stroke-width="1" fill="none" fill-rule="evenodd">
        <g id="Desktop" transform="translate(-706.000000, -755.000000)">
            <g id="bubbles" transform="translate(656.000000, 755.000000)">
                <g id="bubble-right" transform="translate(146.466506, 53.827827) scale(-1, 1) translate(-146.466506, -53.827827) ">
                    <use fill="black" fill-opacity="1" filter="url(#filter-2)" xlink:href="#path-1"></use>
                    <path stroke="#E0E0E0" stroke-width="1" d="M146.320558,1.15565446 C146.142973,1.15565446 145.746386,1.49879256 145.116836,2.27453203 C145.244018,2.11781683 143.441957,4.43110177 142.810723,5.15614254 C140.368587,7.9612043 137.891847,9.5 134.801187,9.5 C134.383648,9.5 134.383648,9.5 133.50489,9.5 C132.410895,9.5 132.410895,9.5 130.917177,9.5 C127.376276,9.5 127.376276,9.5 122.605455,9.5 C111.587909,9.5 111.587909,9.5 98.6024922,9.5 C89.7913689,9.5 89.7913689,9.5 81.5950302,9.5 C74.1089922,9.5 74.1089922,9.5 68.4113582,9.5 C66.0086601,9.5 66.0086601,9.5 64.274649,9.5 C62.9119124,9.5 62.9119124,9.5 62.365587,9.5 C60.3808358,9.5 58.2267647,10.4280098 56.6447489,12.1228528 C55.43413,13.4198114 54.6931756,15.0184471 54.4245602,16.8613766 L54.5235617,99.5710741 C54.6006673,101.582813 55.3303947,103.228654 56.7211751,104.536802 C58.1168212,105.849528 59.7333232,106.5 61.5948509,106.5 L229.851158,106.500821 C232.46029,106.351089 234.492063,105.683802 235.958514,104.510583 C237.40623,103.352352 238.256574,101.702722 238.508451,99.590224 L238.508451,16.8619771 C238.508451,14.8434691 237.996959,13.2673633 236.983719,12.1112255 C235.525942,10.4478573 233.181108,9.5 230.808601,9.5 C230.148593,9.5 230.148593,9.5 227.550904,9.5 C224.122796,9.5 224.122796,9.5 219.310694,9.5 C208.025766,9.5 208.025766,9.5 194.526991,9.5 C181.028668,9.5 181.028668,9.5 169.746003,9.5 C164.935372,9.5 164.935372,9.5 161.509187,9.5 C158.913647,9.5 158.913647,9.5 158.256242,9.5 C155.249231,9.5 152.697222,7.96306329 150.075003,5.17006019 C149.638025,4.70462171 149.220023,4.22930992 148.703176,3.61897879 C148.556934,3.44628466 147.998289,2.78172148 148.108818,2.9130084 C147.883404,2.6452605 147.724816,2.45909661 147.575691,2.28820683 C146.895591,1.5088477 146.475323,1.15565446 146.320558,1.15565446 Z" stroke-linejoin="square" fill="#FFFFFF" fill-rule="evenodd"></path>
                </g>
            </g>
        </g>
    </g>
</svg>