<?xml version="1.0" encoding="UTF-8"?>
<svg width="269px" height="69px" viewBox="0 0 269 69" version="1.1" xmlns="http://www.w3.org/2000/svg" xmlns:xlink="http://www.w3.org/1999/xlink">
    <!-- Generator: Sketch 52.2 (67145) - http://www.bohemiancoding.com/sketch -->
    <title>link</title>
    <desc>Created with Sketch.</desc>
    <defs>
        <path d="M128.441107,0 C126.683317,0 123.6356,7.99945571 116.883406,7.99945571 C113.727321,7.99945571 11.0320084,7.99945571 8.44173399,7.99945571 C6.50399945,7.99945571 4.15656274,8.85410762 2.35487556,10.790917 C1.07280942,12.169135 0.287850894,13.8685268 -9.66338121e-13,15.8890924 L0.037364852,47.5641553 C0.119439158,49.7128853 0.904397679,51.4893753 2.39224042,52.8936252 C3.88008315,54.2978751 5.61897694,55 7.60892178,55 L245.907982,55 C248.613914,54.844178 250.744439,54.142053 252.299556,52.8936252 C253.854672,51.6451973 254.767276,49.8687073 255.037365,47.5641553 L255,15.8890924 C255,13.7488693 254.450386,12.0494775 253.351157,10.790917 C251.702314,8.90307627 249.144304,7.99945571 246.799462,7.99945571 C246.232076,7.99945571 140.893331,7.99945571 140.340427,7.99945571 C133.77314,7.99945571 130.077649,0 128.441107,0 Z" id="path-1"></path>
        <filter x="-5.1%" y="-14.5%" width="110.2%" height="147.3%" filterUnits="objectBoundingBox" id="filter-2">
            <feOffset dx="0" dy="5" in="SourceAlpha" result="shadowOffsetOuter1"></feOffset>
            <feGaussianBlur stdDeviation="3.5" in="shadowOffsetOuter1" result="shadowBlurOuter1"></feGaussianBlur>
            <feComposite in="shadowBlurOuter1" in2="SourceAlpha" operator="out" result="shadowBlurOuter1"></feComposite>
            <feColorMatrix values="0 0 0 0 0.494117647   0 0 0 0 0.494117647   0 0 0 0 0.494117647  0 0 0 1 0" type="matrix" in="shadowBlurOuter1"></feColorMatrix>
        </filter>
    </defs>
    <g id="Page-1" stroke="none" stroke-width="1" fill="none" fill-rule="evenodd">
        <g id="Desktop" transform="translate(-488.000000, -348.000000)">
            <g id="toolbar" transform="translate(495.000000, 349.000000)">
                <g id="remove-link" transform="translate(0.000000, 1.000000)">
                    <g id="link" transform="translate(127.518682, 27.500000) scale(-1, 1) translate(-127.518682, -27.500000) ">
                        <use fill="black" fill-opacity="1" filter="url(#filter-2)" xlink:href="#path-1"></use>
                        <path stroke="#E0E0E0" stroke-width="1" d="M128.441107,0.5 C128.255998,0.5 127.85893,0.828056461 127.223905,1.57402174 C127.351994,1.42355499 125.539219,3.64147722 124.904427,4.33683379 C122.450065,7.02536447 119.968085,8.49945571 116.883406,8.49945571 C116.395049,8.49945571 116.395049,8.49945571 115.181772,8.49945571 C113.630199,8.49945571 113.630199,8.49945571 111.450361,8.49945571 C106.220781,8.49945571 106.220781,8.49945571 99.0580787,8.49945571 C82.4129292,8.49945571 82.4129292,8.49945571 62.6747853,8.49945571 C60.4471726,8.49945571 60.4471726,8.49945571 58.224006,8.49945571 C39.7008364,8.49945571 39.7008364,8.49945571 24.452374,8.49945571 C17.9382048,8.49945571 17.9382048,8.49945571 13.2348212,8.49945571 C11.2846585,8.49945571 11.2846585,8.49945571 9.91120579,8.49945571 C8.84677703,8.49945571 8.84677703,8.49945571 8.44173399,8.49945571 C6.45717202,8.49945571 4.30314537,9.43063311 2.72096855,11.1314694 C1.50999541,12.4332626 0.768754865,14.0380074 0.499999652,15.8885026 L0.537000504,47.5450709 C0.614142589,49.5646739 1.34421848,51.2169554 2.7354314,52.5300045 C4.13117801,53.8473326 5.74758436,54.5 7.60892178,54.5 L245.879237,54.500827 C248.488323,54.3505819 250.520027,53.6810236 251.986546,52.5037214 C253.434652,51.3412007 254.285361,49.6851947 254.537365,47.5647452 L254.5,15.8890924 C254.5,13.8627747 253.98824,12.2804282 252.97457,11.1198282 C251.516616,9.45054523 249.171839,8.49945571 246.799462,8.49945571 C245.874551,8.49945571 245.874551,8.49945571 242.084826,8.49945571 C237.06734,8.49945571 237.06734,8.49945571 230.003624,8.49945571 C213.420782,8.49945571 213.420782,8.49945571 193.564513,8.49945571 C173.708698,8.49945571 173.708698,8.49945571 157.128119,8.49945571 C150.065873,8.49945571 150.065873,8.49945571 145.05031,8.49945571 C141.262735,8.49945571 141.262735,8.49945571 140.340427,8.49945571 C137.338494,8.49945571 134.793676,7.02634652 132.183691,4.34873056 C131.748538,3.90230171 131.332446,3.44643435 130.81811,2.86112548 C130.672603,2.69553957 130.116854,2.05840703 130.226828,2.18429421 C130.002658,1.92768731 129.844953,1.74928806 129.696666,1.58555624 C129.018422,0.836667415 128.602084,0.5 128.441107,0.5 Z" stroke-linejoin="square" fill="#FFFFFF" fill-rule="evenodd"></path>
                    </g>
                </g>
            </g>
        </g>
    </g>
</svg>