<?xml version="1.0" encoding="UTF-8"?>
<svg width="263px" height="63px" viewBox="0 0 263 63" version="1.1" xmlns="http://www.w3.org/2000/svg" xmlns:xlink="http://www.w3.org/1999/xlink">
    <!-- Generator: Sketch 52.2 (67145) - http://www.bohemiancoding.com/sketch -->
    <title>link</title>
    <desc>Created with Sketch.</desc>
    <defs>
        <path d="M556.441107,1090 C554.683317,1090 551.6356,1097.99946 544.883406,1097.99946 C541.727321,1097.99946 341.032008,1097.99946 338.441734,1097.99946 C336.503999,1097.99946 334.156563,1098.85411 332.354876,1100.79092 C331.072809,1102.16914 330.287851,1103.86853 330,1105.88909 L330.037365,1137.56416 C330.119439,1139.71289 330.904398,1141.48938 332.39224,1142.89363 C333.880083,1144.29788 335.618977,1145 337.608922,1145 L575.907982,1145 C578.613914,1144.84418 580.744439,1144.14205 582.299556,1142.89363 C583.854672,1141.6452 584.767276,1139.86871 585.037365,1137.56416 L585,1105.88909 C585,1103.74887 584.450386,1102.04948 583.351157,1100.79092 C581.702314,1098.90308 579.144304,1097.99946 576.799462,1097.99946 C576.232076,1097.99946 568.893331,1097.99946 568.340427,1097.99946 C561.77314,1097.99946 558.077649,1090 556.441107,1090 Z" id="path-1"></path>
        <filter x="-3.1%" y="-21.8%" width="106.3%" height="129.1%" filterUnits="objectBoundingBox" id="filter-2">
            <feMorphology radius="0.5" operator="erode" in="SourceAlpha" result="shadowSpreadOuter1"></feMorphology>
            <feOffset dx="0" dy="-4" in="shadowSpreadOuter1" result="shadowOffsetOuter1"></feOffset>
            <feGaussianBlur stdDeviation="2.5" in="shadowOffsetOuter1" result="shadowBlurOuter1"></feGaussianBlur>
            <feComposite in="shadowBlurOuter1" in2="SourceAlpha" operator="out" result="shadowBlurOuter1"></feComposite>
            <feColorMatrix values="0 0 0 0 0   0 0 0 0 0   0 0 0 0 0  0 0 0 0.3 0" type="matrix" in="shadowBlurOuter1"></feColorMatrix>
        </filter>
    </defs>
    <g id="Page-1" stroke="none" stroke-width="1" fill="none" fill-rule="evenodd">
        <g id="Desktop" transform="translate(-738.000000, -1128.000000)">
            <g id="top-editor" transform="translate(412.000000, 38.000000)">
                <g id="link" transform="translate(457.518682, 1117.500000) scale(-1, -1) translate(-457.518682, -1117.500000) ">
                    <use fill="black" fill-opacity="1" filter="url(#filter-2)" xlink:href="#path-1"></use>
                    <path stroke="#E0E0E0" stroke-width="1" d="M556.441107,1090.5 C556.255998,1090.5 555.85893,1090.82806 555.223905,1091.57402 C555.351994,1091.42355 553.539219,1093.64148 552.904427,1094.33683 C550.450065,1097.02536 547.968085,1098.49946 544.883406,1098.49946 C544.20323,1098.49946 544.20323,1098.49946 542.080369,1098.49946 C539.284254,1098.49946 539.284254,1098.49946 535.237813,1098.49946 C525.413707,1098.49946 525.413707,1098.49946 511.742441,1098.49946 C479.783316,1098.49946 479.783316,1098.49946 441.668734,1098.49946 C441.559562,1098.49946 441.559562,1098.49946 441.450391,1098.49946 C403.290139,1098.49946 403.290139,1098.49946 371.347193,1098.49946 C357.700578,1098.49946 357.700578,1098.49946 347.926518,1098.49946 C343.910481,1098.49946 343.910481,1098.49946 341.152361,1098.49946 C339.071496,1098.49946 339.071496,1098.49946 338.441734,1098.49946 C336.457172,1098.49946 334.303145,1099.43063 332.720969,1101.13147 C331.509995,1102.43326 330.768755,1104.03801 330.5,1105.8885 L330.537001,1137.54507 C330.614143,1139.56467 331.344218,1141.21696 332.735431,1142.53 C334.131178,1143.84733 335.747584,1144.5 337.608922,1144.5 L575.879237,1144.50083 C578.488323,1144.35058 580.520027,1143.68102 581.986546,1142.50372 C583.434652,1141.3412 584.285361,1139.68519 584.537365,1137.56475 L584.5,1105.88909 C584.5,1103.86277 583.98824,1102.28043 582.97457,1101.11983 C581.516616,1099.45055 579.171839,1098.49946 576.799462,1098.49946 C576.375766,1098.49946 576.375766,1098.49946 575.318611,1098.49946 C574.050303,1098.49946 574.050303,1098.49946 572.570842,1098.49946 C571.088216,1098.49946 571.088216,1098.49946 569.818102,1098.49946 C568.760498,1098.49946 568.760498,1098.49946 568.340427,1098.49946 C565.338494,1098.49946 562.793676,1097.02635 560.183691,1094.34873 C559.748538,1093.9023 559.332446,1093.44643 558.81811,1092.86113 C558.672603,1092.69554 558.116854,1092.05841 558.226828,1092.18429 C558.002658,1091.92769 557.844953,1091.74929 557.696666,1091.58556 C557.018422,1090.83667 556.602084,1090.5 556.441107,1090.5 Z" stroke-linejoin="square" fill="#FFFFFF" fill-rule="evenodd"></path>
                </g>
            </g>
        </g>
    </g>
</svg>