<?xml version="1.0" encoding="UTF-8"?>
<svg width="263px" height="63px" viewBox="0 0 263 63" version="1.1" xmlns="http://www.w3.org/2000/svg" xmlns:xlink="http://www.w3.org/1999/xlink">
    <!-- Generator: Sketch 52.2 (67145) - http://www.bohemiancoding.com/sketch -->
    <title>link</title>
    <desc>Created with Sketch.</desc>
    <defs>
        <path d="M556.441107,898 C554.683317,898 551.6356,905.999456 544.883406,905.999456 C541.727321,905.999456 341.032008,905.999456 338.441734,905.999456 C336.503999,905.999456 334.156563,906.854108 332.354876,908.790917 C331.072809,910.169135 330.287851,911.868527 330,913.889092 L330.037365,945.564155 C330.119439,947.712885 330.904398,949.489375 332.39224,950.893625 C333.880083,952.297875 335.618977,953 337.608922,953 L575.907982,953 C578.613914,952.844178 580.744439,952.142053 582.299556,950.893625 C583.854672,949.645197 584.767276,947.868707 585.037365,945.564155 L585,913.889092 C585,911.748869 584.450386,910.049478 583.351157,908.790917 C581.702314,906.903076 579.144304,905.999456 576.799462,905.999456 C576.232076,905.999456 568.893331,905.999456 568.340427,905.999456 C561.77314,905.999456 558.077649,898 556.441107,898 Z" id="path-1"></path>
        <filter x="-3.1%" y="-7.3%" width="106.3%" height="129.1%" filterUnits="objectBoundingBox" id="filter-2">
            <feMorphology radius="0.5" operator="erode" in="SourceAlpha" result="shadowSpreadOuter1"></feMorphology>
            <feOffset dx="0" dy="4" in="shadowSpreadOuter1" result="shadowOffsetOuter1"></feOffset>
            <feGaussianBlur stdDeviation="2.5" in="shadowOffsetOuter1" result="shadowBlurOuter1"></feGaussianBlur>
            <feComposite in="shadowBlurOuter1" in2="SourceAlpha" operator="out" result="shadowBlurOuter1"></feComposite>
            <feColorMatrix values="0 0 0 0 0   0 0 0 0 0   0 0 0 0 0  0 0 0 0.3 0" type="matrix" in="shadowBlurOuter1"></feColorMatrix>
        </filter>
    </defs>
    <g id="Page-1" stroke="none" stroke-width="1" fill="none" fill-rule="evenodd">
        <g id="Desktop" transform="translate(-738.000000, -936.000000)">
            <g id="top-editor" transform="translate(412.000000, 38.000000)">
                <g id="link" transform="translate(457.518682, 925.500000) scale(-1, 1) translate(-457.518682, -925.500000) ">
                    <use fill="black" fill-opacity="1" filter="url(#filter-2)" xlink:href="#path-1"></use>
                    <path stroke="#E0E0E0" stroke-width="1" d="M556.441107,898.5 C556.255998,898.5 555.85893,898.828056 555.223905,899.574022 C555.351994,899.423555 553.539219,901.641477 552.904427,902.336834 C550.450065,905.025364 547.968085,906.499456 544.883406,906.499456 C544.20323,906.499456 544.20323,906.499456 542.080369,906.499456 C539.284254,906.499456 539.284254,906.499456 535.237813,906.499456 C525.413707,906.499456 525.413707,906.499456 511.742441,906.499456 C479.783316,906.499456 479.783316,906.499456 441.668734,906.499456 C441.559562,906.499456 441.559562,906.499456 441.450391,906.499456 C403.290139,906.499456 403.290139,906.499456 371.347193,906.499456 C357.700578,906.499456 357.700578,906.499456 347.926518,906.499456 C343.910481,906.499456 343.910481,906.499456 341.152361,906.499456 C339.071496,906.499456 339.071496,906.499456 338.441734,906.499456 C336.457172,906.499456 334.303145,907.430633 332.720969,909.131469 C331.509995,910.433263 330.768755,912.038007 330.5,913.888503 L330.537001,945.545071 C330.614143,947.564674 331.344218,949.216955 332.735431,950.530005 C334.131178,951.847333 335.747584,952.5 337.608922,952.5 L575.879237,952.500827 C578.488323,952.350582 580.520027,951.681024 581.986546,950.503721 C583.434652,949.341201 584.285361,947.685195 584.537365,945.564745 L584.5,913.889092 C584.5,911.862775 583.98824,910.280428 582.97457,909.119828 C581.516616,907.450545 579.171839,906.499456 576.799462,906.499456 C576.375766,906.499456 576.375766,906.499456 575.318611,906.499456 C574.050303,906.499456 574.050303,906.499456 572.570842,906.499456 C571.088216,906.499456 571.088216,906.499456 569.818102,906.499456 C568.760498,906.499456 568.760498,906.499456 568.340427,906.499456 C565.338494,906.499456 562.793676,905.026347 560.183691,902.348731 C559.748538,901.902302 559.332446,901.446434 558.81811,900.861125 C558.672603,900.69554 558.116854,900.058407 558.226828,900.184294 C558.002658,899.927687 557.844953,899.749288 557.696666,899.585556 C557.018422,898.836667 556.602084,898.5 556.441107,898.5 Z" stroke-linejoin="square" fill="#FFFFFF" fill-rule="evenodd"></path>
                </g>
            </g>
        </g>
    </g>
</svg>