<?xml version="1.0" encoding="UTF-8"?>
<svg width="263px" height="63px" viewBox="0 0 263 63" version="1.1" xmlns="http://www.w3.org/2000/svg" xmlns:xlink="http://www.w3.org/1999/xlink">
    <!-- Generator: Sketch 52.2 (67145) - http://www.bohemiancoding.com/sketch -->
    <title>link</title>
    <desc>Created with Sketch.</desc>
    <defs>
        <path d="M563.441107,995 C561.683317,995 558.6356,1002.99946 551.883406,1002.99946 C548.727321,1002.99946 341.032008,1002.99946 338.441734,1002.99946 C336.503999,1002.99946 334.156563,1003.85411 332.354876,1005.79092 C331.072809,1007.16914 330.287851,1008.86853 330,1010.88909 L330.037365,1042.56416 C330.119439,1044.71289 330.904398,1046.48938 332.39224,1047.89363 C333.880083,1049.29788 335.618977,1050 337.608922,1050 L575.907982,1050 C578.613914,1049.84418 580.744439,1049.14205 582.299556,1047.89363 C583.854672,1046.6452 584.767276,1044.86871 585.037365,1042.56416 L585,1010.88909 C585,1008.74887 584.450386,1007.04948 583.351157,1005.79092 C581.702314,1003.90308 579.144304,1002.99946 576.799462,1002.99946 C576.232076,1002.99946 575.893331,1002.99946 575.340427,1002.99946 C568.77314,1002.99946 565.077649,995 563.441107,995 Z" id="path-1"></path>
        <filter x="-3.1%" y="-7.3%" width="106.3%" height="129.1%" filterUnits="objectBoundingBox" id="filter-2">
            <feMorphology radius="0.5" operator="erode" in="SourceAlpha" result="shadowSpreadOuter1"></feMorphology>
            <feOffset dx="0" dy="4" in="shadowSpreadOuter1" result="shadowOffsetOuter1"></feOffset>
            <feGaussianBlur stdDeviation="2.5" in="shadowOffsetOuter1" result="shadowBlurOuter1"></feGaussianBlur>
            <feComposite in="shadowBlurOuter1" in2="SourceAlpha" operator="out" result="shadowBlurOuter1"></feComposite>
            <feColorMatrix values="0 0 0 0 0   0 0 0 0 0   0 0 0 0 0  0 0 0 0.3 0" type="matrix" in="shadowBlurOuter1"></feColorMatrix>
        </filter>
    </defs>
    <g id="Page-1" stroke="none" stroke-width="1" fill="none" fill-rule="evenodd">
        <g id="Desktop" transform="translate(-738.000000, -1033.000000)">
            <g id="top-editor" transform="translate(412.000000, 38.000000)">
                <g id="link">
                    <use fill="black" fill-opacity="1" filter="url(#filter-2)" xlink:href="#path-1"></use>
                    <path stroke="#E0E0E0" stroke-width="1" d="M563.441107,995.5 C563.255998,995.5 562.85893,995.828056 562.223905,996.574022 C562.351994,996.423555 560.539219,998.641477 559.904427,999.336834 C557.450065,1002.02536 554.968085,1003.49946 551.883406,1003.49946 C551.189544,1003.49946 551.189544,1003.49946 549.001727,1003.49946 C546.116732,1003.49946 546.116732,1003.49946 541.936976,1003.49946 C531.784718,1003.49946 531.784718,1003.49946 517.648582,1003.49946 C484.595655,1003.49946 484.595655,1003.49946 445.168523,1003.49946 C445.059457,1003.49946 445.059457,1003.49946 444.950391,1003.49946 C405.477639,1003.49946 405.477639,1003.49946 372.440943,1003.49946 C358.329484,1003.49946 358.329484,1003.49946 348.227299,1003.49946 C344.077961,1003.49946 344.077961,1003.49946 341.230974,1003.49946 C339.085168,1003.49946 339.085168,1003.49946 338.441734,1003.49946 C336.457172,1003.49946 334.303145,1004.43063 332.720969,1006.13147 C331.509995,1007.43326 330.768755,1009.03801 330.5,1010.8885 L330.537001,1042.54507 C330.614143,1044.56467 331.344218,1046.21696 332.735431,1047.53 C334.131178,1048.84733 335.747584,1049.5 337.608922,1049.5 L575.879237,1049.50083 C578.488323,1049.35058 580.520027,1048.68102 581.986546,1047.50372 C583.434652,1046.3412 584.285361,1044.68519 584.537365,1042.56475 L584.5,1010.88909 C584.5,1008.86277 583.98824,1007.28043 582.97457,1006.11983 C581.516616,1004.45055 579.171839,1003.49946 576.799462,1003.49946 C576.390485,1003.49946 576.390485,1003.49946 576.042467,1003.49946 C575.716494,1003.49946 575.716494,1003.49946 575.340427,1003.49946 C572.338494,1003.49946 569.793676,1002.02635 567.183691,999.348731 C566.748538,998.902302 566.332446,998.446434 565.81811,997.861125 C565.672603,997.69554 565.116854,997.058407 565.226828,997.184294 C565.002658,996.927687 564.844953,996.749288 564.696666,996.585556 C564.018422,995.836667 563.602084,995.5 563.441107,995.5 Z" stroke-linejoin="square" fill="#FFFFFF" fill-rule="evenodd"></path>
                </g>
            </g>
        </g>
    </g>
</svg>