<?xml version="1.0" encoding="UTF-8"?>
<svg width="263px" height="63px" viewBox="0 0 263 63" version="1.1" xmlns="http://www.w3.org/2000/svg" xmlns:xlink="http://www.w3.org/1999/xlink">
    <!-- Generator: Sketch 52.2 (67145) - http://www.bohemiancoding.com/sketch -->
    <title>link</title>
    <desc>Created with Sketch.</desc>
    <defs>
        <path d="M457.441107,717 C455.683317,717 452.6356,724.999456 445.883406,724.999456 C442.727321,724.999456 341.032008,724.999456 338.441734,724.999456 C336.503999,724.999456 334.156563,725.854108 332.354876,727.790917 C331.072809,729.169135 330.287851,730.868527 330,732.889092 L330.037365,764.564155 C330.119439,766.712885 330.904398,768.489375 332.39224,769.893625 C333.880083,771.297875 335.618977,772 337.608922,772 L575.907982,772 C578.613914,771.844178 580.744439,771.142053 582.299556,769.893625 C583.854672,768.645197 584.767276,766.868707 585.037365,764.564155 L585,732.889092 C585,730.748869 584.450386,729.049478 583.351157,727.790917 C581.702314,725.903076 579.144304,724.999456 576.799462,724.999456 C576.232076,724.999456 469.893331,724.999456 469.340427,724.999456 C462.77314,724.999456 459.077649,717 457.441107,717 Z" id="path-1"></path>
        <filter x="-3.1%" y="-7.3%" width="106.3%" height="129.1%" filterUnits="objectBoundingBox" id="filter-2">
            <feMorphology radius="0.5" operator="erode" in="SourceAlpha" result="shadowSpreadOuter1"></feMorphology>
            <feOffset dx="0" dy="4" in="shadowSpreadOuter1" result="shadowOffsetOuter1"></feOffset>
            <feGaussianBlur stdDeviation="2.5" in="shadowOffsetOuter1" result="shadowBlurOuter1"></feGaussianBlur>
            <feComposite in="shadowBlurOuter1" in2="SourceAlpha" operator="out" result="shadowBlurOuter1"></feComposite>
            <feColorMatrix values="0 0 0 0 0   0 0 0 0 0   0 0 0 0 0  0 0 0 0.3 0" type="matrix" in="shadowBlurOuter1"></feColorMatrix>
        </filter>
    </defs>
    <g id="Page-1" stroke="none" stroke-width="1" fill="none" fill-rule="evenodd">
        <g id="Desktop" transform="translate(-738.000000, -755.000000)">
            <g id="top-editor" transform="translate(412.000000, 38.000000)">
                <g id="link" transform="translate(457.518682, 744.500000) scale(-1, 1) translate(-457.518682, -744.500000) ">
                    <use fill="black" fill-opacity="1" filter="url(#filter-2)" xlink:href="#path-1"></use>
                    <path stroke="#E0E0E0" stroke-width="1" d="M457.441107,717.5 C457.255998,717.5 456.85893,717.828056 456.223905,718.574022 C456.351994,718.423555 454.539219,720.641477 453.904427,721.336834 C451.450065,724.025364 448.968085,725.499456 445.883406,725.499456 C445.397011,725.499456 445.397011,725.499456 444.193019,725.499456 C442.654149,725.499456 442.654149,725.499456 440.493363,725.499456 C435.310673,725.499456 435.310673,725.499456 428.214393,725.499456 C411.725523,725.499456 411.725523,725.499456 392.174909,725.499456 C392.06265,725.499456 392.06265,725.499456 391.950391,725.499456 C372.352639,725.499456 372.352639,725.499456 355.878443,725.499456 C348.806047,725.499456 348.806047,725.499456 343.672612,725.499456 C341.541829,725.499456 341.541829,725.499456 340.040545,725.499456 C338.878137,725.499456 338.878137,725.499456 338.441734,725.499456 C336.457172,725.499456 334.303145,726.430633 332.720969,728.131469 C331.509995,729.433263 330.768755,731.038007 330.5,732.888503 L330.537001,764.545071 C330.614143,766.564674 331.344218,768.216955 332.735431,769.530005 C334.131178,770.847333 335.747584,771.5 337.608922,771.5 L575.879237,771.500827 C578.488323,771.350582 580.520027,770.681024 581.986546,769.503721 C583.434652,768.341201 584.285361,766.685195 584.537365,764.564745 L584.5,732.889092 C584.5,730.862775 583.98824,729.280428 582.97457,728.119828 C581.516616,726.450545 579.171839,725.499456 576.799462,725.499456 C575.866859,725.499456 575.866859,725.499456 572.042466,725.499456 C566.978735,725.499456 566.978735,725.499456 559.849439,725.499456 C543.112172,725.499456 543.112172,725.499456 523.070002,725.499456 C503.025088,725.499456 503.025088,725.499456 486.286434,725.499456 C479.156954,725.499456 479.156954,725.499456 474.093887,725.499456 C470.270668,725.499456 470.270668,725.499456 469.340427,725.499456 C466.338494,725.499456 463.793676,724.026347 461.183691,721.348731 C460.748538,720.902302 460.332446,720.446434 459.81811,719.861125 C459.672603,719.69554 459.116854,719.058407 459.226828,719.184294 C459.002658,718.927687 458.844953,718.749288 458.696666,718.585556 C458.018422,717.836667 457.602084,717.5 457.441107,717.5 Z" stroke-linejoin="square" fill="#FFFFFF" fill-rule="evenodd"></path>
                </g>
            </g>
        </g>
    </g>
</svg>