<?xml version="1.0" encoding="UTF-8"?>
<svg width="263px" height="63px" viewBox="0 0 263 63" version="1.1" xmlns="http://www.w3.org/2000/svg" xmlns:xlink="http://www.w3.org/1999/xlink">
    <!-- Generator: Sketch 52.2 (67145) - http://www.bohemiancoding.com/sketch -->
    <title>link</title>
    <desc>Created with Sketch.</desc>
    <defs>
        <path d="M563.441107,905 C561.683317,905 558.6356,912.999456 551.883406,912.999456 C548.727321,912.999456 341.032008,912.999456 338.441734,912.999456 C336.503999,912.999456 334.156563,913.854108 332.354876,915.790917 C331.072809,917.169135 330.287851,918.868527 330,920.889092 L330.037365,952.564155 C330.119439,954.712885 330.904398,956.489375 332.39224,957.893625 C333.880083,959.297875 335.618977,960 337.608922,960 L575.907982,960 C578.613914,959.844178 580.744439,959.142053 582.299556,957.893625 C583.854672,956.645197 584.767276,954.868707 585.037365,952.564155 L585,920.889092 C585,918.748869 584.450386,917.049478 583.351157,915.790917 C581.702314,913.903076 579.144304,912.999456 576.799462,912.999456 C576.232076,912.999456 575.893331,912.999456 575.340427,912.999456 C568.77314,912.999456 565.077649,905 563.441107,905 Z" id="path-1"></path>
        <filter x="-3.1%" y="-7.3%" width="106.3%" height="129.1%" filterUnits="objectBoundingBox" id="filter-2">
            <feMorphology radius="0.5" operator="erode" in="SourceAlpha" result="shadowSpreadOuter1"></feMorphology>
            <feOffset dx="0" dy="4" in="shadowSpreadOuter1" result="shadowOffsetOuter1"></feOffset>
            <feGaussianBlur stdDeviation="2.5" in="shadowOffsetOuter1" result="shadowBlurOuter1"></feGaussianBlur>
            <feComposite in="shadowBlurOuter1" in2="SourceAlpha" operator="out" result="shadowBlurOuter1"></feComposite>
            <feColorMatrix values="0 0 0 0 0   0 0 0 0 0   0 0 0 0 0  0 0 0 0.3 0" type="matrix" in="shadowBlurOuter1"></feColorMatrix>
        </filter>
    </defs>
    <g id="Page-1" stroke="none" stroke-width="1" fill="none" fill-rule="evenodd">
        <g id="Desktop" transform="translate(-738.000000, -943.000000)">
            <g id="top-editor" transform="translate(412.000000, 38.000000)">
                <g id="link" transform="translate(457.518682, 932.500000) scale(-1, 1) translate(-457.518682, -932.500000) ">
                    <use fill="black" fill-opacity="1" filter="url(#filter-2)" xlink:href="#path-1"></use>
                    <path stroke="#E0E0E0" stroke-width="1" d="M563.441107,905.5 C563.255998,905.5 562.85893,905.828056 562.223905,906.574022 C562.351994,906.423555 560.539219,908.641477 559.904427,909.336834 C557.450065,912.025364 554.968085,913.499456 551.883406,913.499456 C551.189544,913.499456 551.189544,913.499456 549.001727,913.499456 C546.116732,913.499456 546.116732,913.499456 541.936976,913.499456 C531.784718,913.499456 531.784718,913.499456 517.648582,913.499456 C484.595655,913.499456 484.595655,913.499456 445.168523,913.499456 C445.059457,913.499456 445.059457,913.499456 444.950391,913.499456 C405.477639,913.499456 405.477639,913.499456 372.440943,913.499456 C358.329484,913.499456 358.329484,913.499456 348.227299,913.499456 C344.077961,913.499456 344.077961,913.499456 341.230974,913.499456 C339.085168,913.499456 339.085168,913.499456 338.441734,913.499456 C336.457172,913.499456 334.303145,914.430633 332.720969,916.131469 C331.509995,917.433263 330.768755,919.038007 330.5,920.888503 L330.537001,952.545071 C330.614143,954.564674 331.344218,956.216955 332.735431,957.530005 C334.131178,958.847333 335.747584,959.5 337.608922,959.5 L575.879237,959.500827 C578.488323,959.350582 580.520027,958.681024 581.986546,957.503721 C583.434652,956.341201 584.285361,954.685195 584.537365,952.564745 L584.5,920.889092 C584.5,918.862775 583.98824,917.280428 582.97457,916.119828 C581.516616,914.450545 579.171839,913.499456 576.799462,913.499456 C576.390485,913.499456 576.390485,913.499456 576.042467,913.499456 C575.716494,913.499456 575.716494,913.499456 575.340427,913.499456 C572.338494,913.499456 569.793676,912.026347 567.183691,909.348731 C566.748538,908.902302 566.332446,908.446434 565.81811,907.861125 C565.672603,907.69554 565.116854,907.058407 565.226828,907.184294 C565.002658,906.927687 564.844953,906.749288 564.696666,906.585556 C564.018422,905.836667 563.602084,905.5 563.441107,905.5 Z" stroke-linejoin="square" fill="#FFFFFF" fill-rule="evenodd"></path>
                </g>
            </g>
        </g>
    </g>
</svg>