<?xml version="1.0" encoding="UTF-8"?>
<svg width="263px" height="63px" viewBox="0 0 263 63" version="1.1" xmlns="http://www.w3.org/2000/svg" xmlns:xlink="http://www.w3.org/1999/xlink">
    <!-- Generator: Sketch 52.2 (67145) - http://www.bohemiancoding.com/sketch -->
    <title>link</title>
    <desc>Created with Sketch.</desc>
    <defs>
        <path d="M563.441107,1104 C561.683317,1104 558.6356,1111.99946 551.883406,1111.99946 C548.727321,1111.99946 341.032008,1111.99946 338.441734,1111.99946 C336.503999,1111.99946 334.156563,1112.85411 332.354876,1114.79092 C331.072809,1116.16914 330.287851,1117.86853 330,1119.88909 L330.037365,1151.56416 C330.119439,1153.71289 330.904398,1155.48938 332.39224,1156.89363 C333.880083,1158.29788 335.618977,1159 337.608922,1159 L575.907982,1159 C578.613914,1158.84418 580.744439,1158.14205 582.299556,1156.89363 C583.854672,1155.6452 584.767276,1153.86871 585.037365,1151.56416 L585,1119.88909 C585,1117.74887 584.450386,1116.04948 583.351157,1114.79092 C581.702314,1112.90308 579.144304,1111.99946 576.799462,1111.99946 C576.232076,1111.99946 575.893331,1111.99946 575.340427,1111.99946 C568.77314,1111.99946 565.077649,1104 563.441107,1104 Z" id="path-1"></path>
        <filter x="-3.1%" y="-21.8%" width="106.3%" height="129.1%" filterUnits="objectBoundingBox" id="filter-2">
            <feMorphology radius="0.5" operator="erode" in="SourceAlpha" result="shadowSpreadOuter1"></feMorphology>
            <feOffset dx="0" dy="-4" in="shadowSpreadOuter1" result="shadowOffsetOuter1"></feOffset>
            <feGaussianBlur stdDeviation="2.5" in="shadowOffsetOuter1" result="shadowBlurOuter1"></feGaussianBlur>
            <feComposite in="shadowBlurOuter1" in2="SourceAlpha" operator="out" result="shadowBlurOuter1"></feComposite>
            <feColorMatrix values="0 0 0 0 0   0 0 0 0 0   0 0 0 0 0  0 0 0 0.3 0" type="matrix" in="shadowBlurOuter1"></feColorMatrix>
        </filter>
    </defs>
    <g id="Page-1" stroke="none" stroke-width="1" fill="none" fill-rule="evenodd">
        <g id="Desktop" transform="translate(-738.000000, -1142.000000)">
            <g id="top-editor" transform="translate(412.000000, 38.000000)">
                <g id="link" transform="translate(457.518682, 1131.500000) scale(1, -1) translate(-457.518682, -1131.500000) ">
                    <use fill="black" fill-opacity="1" filter="url(#filter-2)" xlink:href="#path-1"></use>
                    <path stroke="#E0E0E0" stroke-width="1" d="M563.441107,1104.5 C563.255998,1104.5 562.85893,1104.82806 562.223905,1105.57402 C562.351994,1105.42355 560.539219,1107.64148 559.904427,1108.33683 C557.450065,1111.02536 554.968085,1112.49946 551.883406,1112.49946 C551.189544,1112.49946 551.189544,1112.49946 549.001727,1112.49946 C546.116732,1112.49946 546.116732,1112.49946 541.936976,1112.49946 C531.784718,1112.49946 531.784718,1112.49946 517.648582,1112.49946 C484.595655,1112.49946 484.595655,1112.49946 445.168523,1112.49946 C445.059457,1112.49946 445.059457,1112.49946 444.950391,1112.49946 C405.477639,1112.49946 405.477639,1112.49946 372.440943,1112.49946 C358.329484,1112.49946 358.329484,1112.49946 348.227299,1112.49946 C344.077961,1112.49946 344.077961,1112.49946 341.230974,1112.49946 C339.085168,1112.49946 339.085168,1112.49946 338.441734,1112.49946 C336.457172,1112.49946 334.303145,1113.43063 332.720969,1115.13147 C331.509995,1116.43326 330.768755,1118.03801 330.5,1119.8885 L330.537001,1151.54507 C330.614143,1153.56467 331.344218,1155.21696 332.735431,1156.53 C334.131178,1157.84733 335.747584,1158.5 337.608922,1158.5 L575.879237,1158.50083 C578.488323,1158.35058 580.520027,1157.68102 581.986546,1156.50372 C583.434652,1155.3412 584.285361,1153.68519 584.537365,1151.56475 L584.5,1119.88909 C584.5,1117.86277 583.98824,1116.28043 582.97457,1115.11983 C581.516616,1113.45055 579.171839,1112.49946 576.799462,1112.49946 C576.390485,1112.49946 576.390485,1112.49946 576.042467,1112.49946 C575.716494,1112.49946 575.716494,1112.49946 575.340427,1112.49946 C572.338494,1112.49946 569.793676,1111.02635 567.183691,1108.34873 C566.748538,1107.9023 566.332446,1107.44643 565.81811,1106.86113 C565.672603,1106.69554 565.116854,1106.05841 565.226828,1106.18429 C565.002658,1105.92769 564.844953,1105.74929 564.696666,1105.58556 C564.018422,1104.83667 563.602084,1104.5 563.441107,1104.5 Z" stroke-linejoin="square" fill="#FFFFFF" fill-rule="evenodd"></path>
                </g>
            </g>
        </g>
    </g>
</svg>