<?xml version="1.0" encoding="UTF-8"?>
<svg width="263px" height="63px" viewBox="0 0 263 63" version="1.1" xmlns="http://www.w3.org/2000/svg" xmlns:xlink="http://www.w3.org/1999/xlink">
    <!-- Generator: Sketch 52.2 (67145) - http://www.bohemiancoding.com/sketch -->
    <title>link</title>
    <desc>Created with Sketch.</desc>
    <defs>
        <path d="M556.441107,991 C554.683317,991 551.6356,998.999456 544.883406,998.999456 C541.727321,998.999456 341.032008,998.999456 338.441734,998.999456 C336.503999,998.999456 334.156563,999.854108 332.354876,1001.79092 C331.072809,1003.16914 330.287851,1004.86853 330,1006.88909 L330.037365,1038.56416 C330.119439,1040.71289 330.904398,1042.48938 332.39224,1043.89363 C333.880083,1045.29788 335.618977,1046 337.608922,1046 L575.907982,1046 C578.613914,1045.84418 580.744439,1045.14205 582.299556,1043.89363 C583.854672,1042.6452 584.767276,1040.86871 585.037365,1038.56416 L585,1006.88909 C585,1004.74887 584.450386,1003.04948 583.351157,1001.79092 C581.702314,999.903076 579.144304,998.999456 576.799462,998.999456 C576.232076,998.999456 568.893331,998.999456 568.340427,998.999456 C561.77314,998.999456 558.077649,991 556.441107,991 Z" id="path-1"></path>
        <filter x="-3.1%" y="-7.3%" width="106.3%" height="129.1%" filterUnits="objectBoundingBox" id="filter-2">
            <feMorphology radius="0.5" operator="erode" in="SourceAlpha" result="shadowSpreadOuter1"></feMorphology>
            <feOffset dx="0" dy="4" in="shadowSpreadOuter1" result="shadowOffsetOuter1"></feOffset>
            <feGaussianBlur stdDeviation="2.5" in="shadowOffsetOuter1" result="shadowBlurOuter1"></feGaussianBlur>
            <feComposite in="shadowBlurOuter1" in2="SourceAlpha" operator="out" result="shadowBlurOuter1"></feComposite>
            <feColorMatrix values="0 0 0 0 0   0 0 0 0 0   0 0 0 0 0  0 0 0 0.3 0" type="matrix" in="shadowBlurOuter1"></feColorMatrix>
        </filter>
    </defs>
    <g id="Page-1" stroke="none" stroke-width="1" fill="none" fill-rule="evenodd">
        <g id="Desktop" transform="translate(-738.000000, -1029.000000)">
            <g id="top-editor" transform="translate(412.000000, 38.000000)">
                <g id="link">
                    <use fill="black" fill-opacity="1" filter="url(#filter-2)" xlink:href="#path-1"></use>
                    <path stroke="#E0E0E0" stroke-width="1" d="M556.441107,991.5 C556.255998,991.5 555.85893,991.828056 555.223905,992.574022 C555.351994,992.423555 553.539219,994.641477 552.904427,995.336834 C550.450065,998.025364 547.968085,999.499456 544.883406,999.499456 C544.20323,999.499456 544.20323,999.499456 542.080369,999.499456 C539.284254,999.499456 539.284254,999.499456 535.237813,999.499456 C525.413707,999.499456 525.413707,999.499456 511.742441,999.499456 C479.783316,999.499456 479.783316,999.499456 441.668734,999.499456 C441.559562,999.499456 441.559562,999.499456 441.450391,999.499456 C403.290139,999.499456 403.290139,999.499456 371.347193,999.499456 C357.700578,999.499456 357.700578,999.499456 347.926518,999.499456 C343.910481,999.499456 343.910481,999.499456 341.152361,999.499456 C339.071496,999.499456 339.071496,999.499456 338.441734,999.499456 C336.457172,999.499456 334.303145,1000.43063 332.720969,1002.13147 C331.509995,1003.43326 330.768755,1005.03801 330.5,1006.8885 L330.537001,1038.54507 C330.614143,1040.56467 331.344218,1042.21696 332.735431,1043.53 C334.131178,1044.84733 335.747584,1045.5 337.608922,1045.5 L575.879237,1045.50083 C578.488323,1045.35058 580.520027,1044.68102 581.986546,1043.50372 C583.434652,1042.3412 584.285361,1040.68519 584.537365,1038.56475 L584.5,1006.88909 C584.5,1004.86277 583.98824,1003.28043 582.97457,1002.11983 C581.516616,1000.45055 579.171839,999.499456 576.799462,999.499456 C576.375766,999.499456 576.375766,999.499456 575.318611,999.499456 C574.050303,999.499456 574.050303,999.499456 572.570842,999.499456 C571.088216,999.499456 571.088216,999.499456 569.818102,999.499456 C568.760498,999.499456 568.760498,999.499456 568.340427,999.499456 C565.338494,999.499456 562.793676,998.026347 560.183691,995.348731 C559.748538,994.902302 559.332446,994.446434 558.81811,993.861125 C558.672603,993.69554 558.116854,993.058407 558.226828,993.184294 C558.002658,992.927687 557.844953,992.749288 557.696666,992.585556 C557.018422,991.836667 556.602084,991.5 556.441107,991.5 Z" stroke-linejoin="square" fill="#FFFFFF" fill-rule="evenodd"></path>
                </g>
            </g>
        </g>
    </g>
</svg>