<?xml version="1.0" encoding="UTF-8"?>
<svg width="28px" height="21px" viewBox="0 0 28 21" version="1.1" xmlns="http://www.w3.org/2000/svg" xmlns:xlink="http://www.w3.org/1999/xlink">
    <!-- Generator: Sketch 52.2 (67145) - http://www.bohemiancoding.com/sketch -->
    <title>block quote</title>
    <desc>Created with Sketch.</desc>
    <g id="Page-1" stroke="none" stroke-width="1" fill="none" fill-rule="evenodd" opacity="0.723353795">
        <g id="Desktop" transform="translate(-627.000000, -415.000000)" stroke="#000000">
            <g id="toolbar" transform="translate(495.000000, 349.000000)">
                <g id="main" transform="translate(34.000000, 0.000000)">
                    <g id="buttons" transform="translate(21.000000, 30.000000)">
                        <g id="block-quote" transform="translate(77.000000, 36.000000)">
                            <path d="M0.521609256,0.530563072 L11.5134555,0.530563072 L11.5134555,11.3776308 C11.1406101,13.7611966 10.2303384,15.694655 8.78264044,17.1780059 C7.33494246,18.6613569 5.59707801,19.4412514 3.5690471,19.5176892 L3.5690471,17.5882353 C4.52084855,17.0826826 5.23066583,16.5078588 5.69849894,15.8637637 C6.16633205,15.2196687 6.44915122,14.4278681 6.54695645,13.4883618 L6.54695645,11.541971 L0.521609256,11.541971 L0.521609256,0.530563072 Z" id="Path-7"></path>
                            <path d="M15.5216093,0.530563072 L26.5134555,0.530563072 L26.5134555,11.3776308 C26.1406101,13.7611966 25.2303384,15.694655 23.7826404,17.1780059 C22.3349425,18.6613569 20.597078,19.4412514 18.5690471,19.5176892 L18.5690471,17.5882353 C19.5208485,17.0826826 20.2306658,16.5078588 20.6984989,15.8637637 C21.1663321,15.2196687 21.4491512,14.4278681 21.5469565,13.4883618 L21.5469565,11.541971 L15.5216093,11.541971 L15.5216093,0.530563072 Z" id="Path-7"></path>
                        </g>
                    </g>
                </g>
            </g>
        </g>
    </g>
</svg>