<?xml version="1.0" encoding="UTF-8"?>
<svg width="14px" height="17px" viewBox="0 0 14 17" version="1.1" xmlns="http://www.w3.org/2000/svg" xmlns:xlink="http://www.w3.org/1999/xlink">
    <!-- Generator: Sketch 52.2 (67145) - http://www.bohemiancoding.com/sketch -->
    <title>bold</title>
    <desc>Created with Sketch.</desc>
    <g id="Page-1" stroke="none" stroke-width="1" fill="none" fill-rule="evenodd" opacity="0.723353795">
        <g id="Desktop" transform="translate(-554.000000, -379.000000)" fill="#000000">
            <g id="toolbar" transform="translate(495.000000, 349.000000)">
                <g id="main" transform="translate(34.000000, 0.000000)">
                    <g id="buttons" transform="translate(21.000000, 30.000000)">
                        <g id="bold" transform="translate(4.000000, 0.000000)">
                            <g>
                                <path d="M7.59375,16.9101562 L0,16.9101562 L0,0 L7.46484375,0 C9.05078918,0 10.3085891,0.378902461 11.2382812,1.13671875 C12.1679734,1.89453504 12.6328125,2.92186852 12.6328125,4.21875 C12.6328125,5.14062961 12.3300812,5.94921527 11.7246094,6.64453125 C11.1191376,7.33984723 10.3632858,7.75390559 9.45703125,7.88671875 L9.45703125,7.98046875 C10.613287,8.06640668 11.5664025,8.49218367 12.3164062,9.2578125 C13.06641,10.0234413 13.4414062,10.960932 13.4414062,12.0703125 C13.4414062,13.5625075 12.917974,14.7421832 11.8710938,15.609375 C10.8242135,16.4765668 9.39844652,16.9101562 7.59375,16.9101562 Z M3.5390625,2.63671875 L3.5390625,7.03125 L6.1875,7.03125 C7.13281723,7.03125 7.86327867,6.83398635 8.37890625,6.43945312 C8.89453383,6.0449199 9.15234375,5.48828484 9.15234375,4.76953125 C9.15234375,4.08984035 8.92578352,3.56445498 8.47265625,3.19335938 C8.01952898,2.82226377 7.37891039,2.63671875 6.55078125,2.63671875 L3.5390625,2.63671875 Z M3.5390625,14.2734375 L6.69140625,14.2734375 C7.71484887,14.2734375 8.49413795,14.060549 9.02929688,13.6347656 C9.5644558,13.2089822 9.83203125,12.593754 9.83203125,11.7890625 C9.83203125,10.9999961 9.55664338,10.3984396 9.00585938,9.984375 C8.45507537,9.57031043 7.65625523,9.36328125 6.609375,9.36328125 L3.5390625,9.36328125 L3.5390625,14.2734375 Z"></path>
                            </g>
                        </g>
                    </g>
                </g>
            </g>
        </g>
    </g>
</svg>