<?xml version="1.0" encoding="UTF-8"?>
<svg width="23px" height="15px" viewBox="0 0 23 15" version="1.1" xmlns="http://www.w3.org/2000/svg" xmlns:xlink="http://www.w3.org/1999/xlink">
    <!-- Generator: Sketch 52.2 (67145) - http://www.bohemiancoding.com/sketch -->
    <title>h2</title>
    <desc>Created with Sketch.</desc>
    <g id="Page-1" stroke="none" stroke-width="1" fill="none" fill-rule="evenodd">
        <g id="Desktop" transform="translate(-642.000000, -377.000000)" fill="#000000">
            <g id="toolbar" transform="translate(542.000000, 346.000000)">
                <g id="h2" transform="translate(100.000000, 31.000000)">
                    <g id="Path">
                        <polygon points="10.9082031 14.0917969 9.5703125 14.0917969 9.5703125 7.48046875 1.328125 7.48046875 1.328125 14.0917969 0 14.0917969 0 0 1.328125 0 1.328125 6.26953125 9.5703125 6.26953125 9.5703125 0 10.9082031 0"></polygon>
                        <path d="M13,4.07983726 C13.0063698,2.90779384 13.4283628,1.93482131 14.2659917,1.16089046 C15.1036205,0.386959618 16.1530295,0 17.4142502,0 C18.6181426,0 19.6341106,0.363073222 20.4621848,1.08923056 C21.2902589,1.81538789 21.7042898,2.70714668 21.7042898,3.76453368 C21.7042898,4.51617022 21.4956819,5.24390909 21.07846,5.94777212 C20.661238,6.65163515 19.8793566,7.59912887 18.7327924,8.79028169 L14.8918215,12.8032364 L14.8918215,12.841455 L22.057812,12.841455 L22.057812,14.0071228 L13.0668826,14.0071228 L13.0668826,13.089876 L17.9397561,7.93991748 C18.9270753,6.90163989 19.5847474,6.10861154 19.9127922,5.56080863 C20.2408369,5.01300573 20.4048569,4.43973222 20.4048569,3.84097091 C20.4048569,3.08933437 20.1118504,2.45236381 19.5258287,1.93004011 C18.939807,1.40771641 18.2232151,1.14655848 17.3760315,1.14655848 C16.4906292,1.14655848 15.7533357,1.4252331 15.1641291,1.98259071 C14.5749225,2.53994831 14.2739539,3.2390235 14.2612143,4.07983726 L14.2612143,4.08939192 L13,4.08939192 L13,4.07983726 Z"></path>
                    </g>
                </g>
            </g>
        </g>
    </g>
</svg>