<?xml version="1.0" encoding="UTF-8"?>
<svg width="23px" height="15px" viewBox="0 0 23 15" version="1.1" xmlns="http://www.w3.org/2000/svg" xmlns:xlink="http://www.w3.org/1999/xlink">
    <!-- Generator: Sketch 52.2 (67145) - http://www.bohemiancoding.com/sketch -->
    <title>h3</title>
    <desc>Created with Sketch.</desc>
    <g id="Page-1" stroke="none" stroke-width="1" fill="none" fill-rule="evenodd">
        <g id="Desktop" transform="translate(-683.000000, -377.000000)" fill="#000000">
            <g id="toolbar" transform="translate(542.000000, 346.000000)">
                <g id="h3" transform="translate(141.000000, 31.000000)">
                    <g id="Path">
                        <polygon points="10.9082031 14.0917969 9.5703125 14.0917969 9.5703125 7.48046875 1.328125 7.48046875 1.328125 14.0917969 0 14.0917969 0 0 1.328125 0 1.328125 6.26953125 9.5703125 6.26953125 9.5703125 0 10.9082031 0"></polygon>
                        <path d="M15.8100562,7.32437878 L15.8100562,6.2337139 L17.3378538,6.2337139 C18.1926972,6.2337139 18.8898994,5.98925698 19.4294814,5.5003358 C19.9690634,5.01141461 20.2388504,4.38773605 20.2388504,3.6292814 C20.2388504,2.88336318 19.9827043,2.28005603 19.4704046,1.81934184 C18.9581048,1.35862765 18.2654495,1.12827401 17.392418,1.12827401 C16.5800136,1.12827401 15.9070619,1.36019468 15.3735426,1.82404298 C14.8400234,2.28789128 14.5399233,2.89589953 14.4732334,3.64808596 L13.272821,3.64808596 C13.3516363,2.55741563 13.7714733,1.6767439 14.5323446,1.00604433 C15.2932158,0.335344755 16.264752,-5.55111512e-17 17.4469822,-5.55111512e-17 C18.6049615,-5.55111512e-17 19.5689194,0.327509597 20.3388847,0.982538617 C21.10885,1.63756764 21.4938269,2.46652733 21.4938269,3.46944258 C21.4938269,4.31565232 21.2482905,5.02708465 20.7572102,5.60376091 C20.26613,6.18043718 19.5992409,6.54712257 18.756523,6.70382807 L18.756523,6.74143721 C19.7629343,6.80411941 20.5647169,7.13476307 21.1618947,7.73337811 C21.7590725,8.33199314 22.057657,9.11080783 22.057657,10.0698455 C22.057657,10.822032 21.8575903,11.4989896 21.4574508,12.1007388 C21.0573113,12.7024879 20.5116748,13.1694633 19.8205248,13.501679 C19.1293749,13.8338947 18.3624524,14 17.5197345,14 C16.2101871,14 15.1401333,13.652119 14.3095408,12.9563465 C13.4789483,12.2605741 13.042439,11.364232 13,10.2672935 L14.2004124,10.2672935 C14.2489141,11.0320164 14.5778117,11.657262 15.187115,12.143049 C15.7964182,12.6288361 16.570919,12.871726 17.5106404,12.871726 C18.4624873,12.871726 19.2475977,12.6115988 19.865995,12.0913365 C20.4843923,11.5710742 20.7935864,10.9097869 20.7935864,10.1074547 C20.7935864,9.24244027 20.490455,8.56234857 19.8841831,8.06715917 C19.2779112,7.57196976 18.4473311,7.32437878 17.392418,7.32437878 L15.8100562,7.32437878 Z"></path>
                    </g>
                </g>
            </g>
        </g>
    </g>
</svg>