<?xml version="1.0" encoding="UTF-8"?>
<svg width="25px" height="8px" viewBox="0 0 25 8" version="1.1" xmlns="http://www.w3.org/2000/svg" xmlns:xlink="http://www.w3.org/1999/xlink">
    <!-- Generator: Sketch 52.2 (67145) - http://www.bohemiancoding.com/sketch -->
    <title>023-link</title>
    <desc>Created with Sketch.</desc>
    <g id="Page-1" stroke="none" stroke-width="1" fill="none" fill-rule="evenodd" opacity="0.723353795">
        <g id="Desktop" transform="translate(-668.000000, -421.000000)" fill="#000000">
            <g id="toolbar" transform="translate(495.000000, 349.000000)">
                <g id="main" transform="translate(34.000000, 0.000000)">
                    <g id="buttons" transform="translate(21.000000, 30.000000)">
                        <g id="023-link" transform="translate(118.000000, 42.000000)">
                            <g>
                                <path d="M6.77084961,7.30795898 L3.64584961,7.30795898 C1.63227539,7.30795898 0,5.67563477 0,3.66210938 C0,1.64858398 1.63227539,0.0162597656 3.64584961,0.0162597656 L6.77084961,0.0162597656 C8.784375,0.0162597656 10.4166992,1.64853516 10.4166992,3.66210938 C10.4166992,5.67568359 8.784375,7.30795898 6.77084961,7.30795898 Z M3.64584961,1.05795898 C2.20761719,1.05795898 1.04169922,2.22387695 1.04169922,3.66210938 C1.04169922,5.1003418 2.20761719,6.26625977 3.64584961,6.26625977 L6.77084961,6.26625977 C8.20908203,6.26625977 9.375,5.1003418 9.375,3.66210938 C9.375,2.22387695 8.20908203,1.05795898 6.77084961,1.05795898 L3.64584961,1.05795898 Z" id="Shape" fill-rule="nonzero"></path>
                                <path d="M21.3541504,7.30795898 L18.2291504,7.30795898 C16.215625,7.30795898 14.5833008,5.67568359 14.5833008,3.66210937 C14.5833008,1.64853516 16.2155762,0.0162597656 18.2291504,0.0162597656 L21.3541504,0.0162597656 C23.3677246,0.0162597656 25,1.64858398 25,3.66210937 C25,5.67563477 23.3677246,7.30795898 21.3541504,7.30795898 Z M18.2291504,1.05795898 C16.790918,1.05795898 15.625,2.22387695 15.625,3.66210937 C15.625,5.1003418 16.790918,6.26625977 18.2291504,6.26625977 L21.3541504,6.26625977 C22.7923828,6.26625977 23.9583008,5.1003418 23.9583008,3.66210937 C23.9583008,2.22387695 22.7923828,1.05795898 21.3541504,1.05795898 L18.2291504,1.05795898 Z" id="Shape" fill-rule="nonzero"></path>
                                <path d="M17.1875,4.18295898 L7.8125,4.18295898 C7.52485352,4.18295898 7.29165039,3.94975586 7.29165039,3.66210937 C7.29165039,3.37446289 7.52485352,3.14125977 7.8125,3.14125977 L17.1875,3.14125977 C17.4751465,3.14125977 17.7083496,3.37446289 17.7083496,3.66210937 C17.7083496,3.94975586 17.4751465,4.18295898 17.1875,4.18295898 Z" id="Path"></path>
                            </g>
                        </g>
                    </g>
                </g>
            </g>
        </g>
    </g>
</svg>