<?xml version="1.0" encoding="UTF-8"?>
<svg width="25px" height="22px" viewBox="0 0 25 22" version="1.1" xmlns="http://www.w3.org/2000/svg" xmlns:xlink="http://www.w3.org/1999/xlink">
    <!-- Generator: Sketch 52.2 (67145) - http://www.bohemiancoding.com/sketch -->
    <title>unlink</title>
    <desc>Created with Sketch.</desc>
    <g id="Page-1" stroke="none" stroke-width="1" fill="none" fill-rule="evenodd" opacity="0.723353795">
        <g id="Desktop" transform="translate(-599.000000, -429.000000)">
            <g id="toolbar" transform="translate(495.000000, 349.000000)">
                <g id="main" transform="translate(34.000000, 0.000000)">
                    <g id="buttons" transform="translate(21.000000, 30.000000)">
                        <g id="unlink" transform="translate(49.000000, 50.000000)">
                            <g transform="translate(0.000000, 0.134213)">
                                <g id="Group" transform="translate(0.000000, 10.873984)">
                                    <path d="M3.79430894,10.5980183 C1.69893293,10.5981707 0.000152439024,8.89964431 0,6.80426829 C-5.08130081e-05,5.79786585 0.399695122,4.83267276 1.11138211,4.1210874 L3.41056911,1.82190041 C4.91158537,0.38851626 7.27428862,0.38851626 8.77535569,1.82190041 C10.2565041,3.30345528 10.2565041,5.7050813 8.77535569,7.18668699 L6.47723577,9.48587398 C5.76742886,10.2000508 4.80127033,10.6005589 3.79430894,10.5980183 Z M6.0902439,1.79476626 C5.37098577,1.79222561 4.68069106,2.07804878 4.17372967,2.5882622 L1.87886179,4.88744919 C0.820934959,5.94573171 0.820934959,7.66117886 1.87886179,8.71941057 C2.9507622,9.74395325 4.63897358,9.74395325 5.71082317,8.71941057 L8.01001016,6.42022358 C9.06788618,5.36143293 9.06712398,3.64552846 8.00833333,2.58765244 C7.49954268,2.07931911 6.80950203,1.79405488 6.0902439,1.79476626 Z" id="Shape" fill="#000000" fill-rule="nonzero"></path>
                                    <path d="M6.79486789,4.34542683 C6.49552846,4.34598577 6.25243902,4.10370935 6.25188008,3.80436992 C6.25162602,3.66006098 6.30894309,3.52159553 6.41112805,3.41966463 L9.66316057,0.167632114 C9.87845528,-0.0402947154 10.2215955,-0.0343495935 10.4295732,0.180945122 C10.6324187,0.391006098 10.6324187,0.72398374 10.4295732,0.933993902 L7.17754065,4.18602642 C7.07611789,4.28780488 6.93846545,4.34512195 6.79486789,4.34542683 Z" id="Path" fill="#455A64"></path>
                                    <path d="M21.1774898,10.5980183 C20.1706809,10.6008638 19.2045732,10.2007622 18.494563,9.48689024 L16.195376,7.18770325 C14.7142785,5.70614837 14.7142785,3.30452236 16.195376,1.82291667 C17.6963923,0.38953252 20.0591463,0.38953252 21.5601626,1.82291667 L23.8593496,4.12210366 C25.3411077,5.60370935 25.3412093,8.00594512 23.8596037,9.48770325 C23.1480183,10.1993902 22.1828252,10.599187 21.1764228,10.5990854 L21.1774898,10.5980183 Z M18.8815549,1.79476626 C17.3848577,1.7945122 16.1712907,3.00757114 16.1710366,4.50426829 C16.1708841,5.22332317 16.4565549,5.9129065 16.9650407,6.42129065 L19.2642276,8.72047764 C20.336128,9.74502033 22.0243394,9.74502033 23.096189,8.72047764 C24.1541159,7.66219512 24.1541159,5.94674797 23.096189,4.88851626 L20.79375,2.59364837 C20.2887703,2.08252033 19.6001016,1.79481707 18.8815549,1.79476626 Z" id="Shape" fill="#455A64" fill-rule="nonzero"></path>
                                    <path d="M18.1769817,4.34542683 C18.0331301,4.34568089 17.8950711,4.28877033 17.7932419,4.18714431 L14.5412093,0.935111789 C14.3332825,0.719817073 14.3392276,0.376676829 14.5545224,0.168699187 C14.7645833,-0.0341463415 15.097561,-0.0341463415 15.3075711,0.168699187 L18.5596037,3.42073171 C18.7715447,3.63211382 18.7719512,3.97530488 18.5605691,4.18724593 C18.4586382,4.28943089 18.3201728,4.34674797 18.1758638,4.3464939 L18.1769817,4.34542683 Z" id="Path" fill="#455A64"></path>
                                </g>
                                <g id="Group" transform="translate(5.132114, 0.000000)" fill="#000000">
                                    <path d="M5.99771341,6.54735772 C5.74049797,6.54690041 5.51905488,6.36575203 5.46763211,6.11377033 L4.3835874,0.693699187 C4.32515244,0.400101626 4.51580285,0.114735772 4.80940041,0.056351626 C4.80945122,0.056351626 4.80955285,0.056300813 4.80960366,0.056300813 C5.10320122,-0.00213414634 5.38856707,0.18851626 5.44695122,0.482113821 C5.44695122,0.482164634 5.44700203,0.48226626 5.44700203,0.482317073 L6.53099593,5.90238821 C6.58943089,6.19598577 6.39878049,6.48135163 6.10518293,6.53973577 C6.10513211,6.53973577 6.10503049,6.53978659 6.10497967,6.53978659 C6.06961382,6.54603659 6.03363821,6.54857724 5.99771341,6.54735772 Z" id="Path"></path>
                                    <path d="M2.74674797,7.08932927 C2.53170732,7.08877033 2.33734756,6.96117886 2.25137195,6.76412602 L0.0833333333,1.88607724 C-0.0382113821,1.6125 0.0850609756,1.2921748 0.358689024,1.17063008 C0.63226626,1.04908537 0.952591463,1.17235772 1.07413618,1.44598577 L3.2421748,6.32403455 C3.36189024,6.59837398 3.23658537,6.91783537 2.96224593,7.03760163 C2.89425813,7.06727642 2.82093496,7.08267276 2.74679878,7.0828252 L2.74674797,7.08932927 Z" id="Path"></path>
                                    <path d="M9.25188008,6.54735772 C9.21544715,6.54756098 9.17911585,6.54395325 9.14349593,6.53653455 C8.84989837,6.47825203 8.65914634,6.19293699 8.71742886,5.89933943 C8.71742886,5.89928862 8.71747967,5.89918699 8.71747967,5.89913618 L9.80147358,0.479065041 C9.8597561,0.18546748 10.1450711,-0.00528455285 10.4386687,0.0529979675 C10.4387195,0.0529979675 10.4388211,0.0530487805 10.438872,0.0530487805 C10.7324695,0.111331301 10.9232215,0.396646341 10.864939,0.690243902 C10.864939,0.690294715 10.8648882,0.690396341 10.8648882,0.690447154 L9.78089431,6.11051829 C9.73089431,6.36336382 9.50970528,6.54603659 9.25188008,6.54735772 Z" id="Path"></path>
                                    <path d="M12.5028455,7.08932927 C12.2035061,7.08856707 11.9614329,6.8453252 11.9621951,6.54598577 C11.9623984,6.47184959 11.9777947,6.39852642 12.0074695,6.33053862 L14.1755081,1.45248984 C14.2970528,1.1789126 14.617378,1.05564024 14.8909553,1.17713415 C15.1645325,1.29862805 15.2878049,1.61900407 15.166311,1.8925813 L12.9982724,6.77063008 C12.9102642,6.96519309 12.716311,7.08993902 12.5028455,7.08932927 Z" id="Path"></path>
                                </g>
                                <path d="M3.79430894,21.4698171 C1.69893293,21.46875 0.00111788618,19.7692581 0.00218495935,17.6738821 C0.00269308943,16.6693089 0.401575203,15.7058943 1.11138211,14.9950203 L3.41163618,12.6947663 C4.89339431,11.2130081 7.29573171,11.2130081 8.77748984,12.6947663 C10.259248,14.1765244 10.259248,16.5788618 8.77748984,18.0606199 L6.47723577,20.360874 C5.76605691,21.0727134 4.80050813,21.4717988 3.79430894,21.4698171 Z M6.0902439,12.6698171 C5.37139228,12.6684451 4.6816565,12.9536077 4.17372967,13.4622459 L1.87779472,15.7614329 C0.819308943,16.8199187 0.819308943,18.5360264 1.87779472,19.5945122 C2.93628049,20.652998 4.65238821,20.652998 5.71087398,19.5945122 L8.01112805,17.2942581 C9.06839431,16.2348577 9.06666667,14.5189533 8.00731707,13.461687 C7.49857724,12.9539634 6.8089939,12.6691057 6.0902439,12.6698171 Z" id="Shape" fill="#000000" fill-rule="nonzero"></path>
                                <path d="M6.79486789,15.2194106 C6.49552846,15.2199695 6.25243902,14.9776931 6.25188008,14.6783537 C6.25162602,14.5340447 6.30894309,14.3955793 6.41112805,14.2936484 L9.66316057,11.0416159 C9.87845528,10.833689 10.2215955,10.8396341 10.4295732,11.0549289 C10.6324187,11.2649898 10.6324187,11.5979675 10.4295732,11.8079776 L7.17754065,15.0600102 C7.07611789,15.1617886 6.93846545,15.2191057 6.79486789,15.2194106 Z" id="Path" fill="#000000"></path>
                                <path d="M21.1774898,21.4698171 C20.1712907,21.4717988 19.2057419,21.0727134 18.494563,20.360874 L16.1943089,18.0606199 C14.7125508,16.5788618 14.7125508,14.1765244 16.1943089,12.6947663 C17.6760671,11.2130081 20.0784045,11.2130081 21.5601626,12.6947663 L23.8604167,14.9950203 C25.3409553,16.4777947 25.339126,18.8800305 23.8563516,20.3606199 C23.1454776,21.0704268 22.1821138,21.4693089 21.1774898,21.4698171 Z M18.8815549,12.6698171 C17.3848577,12.670122 16.1717988,13.8837398 16.1721037,15.380437 C16.1722561,16.0985772 16.4574187,16.7872967 16.9650407,17.2953252 L19.2652947,19.5955793 C20.3237805,20.654065 22.0398882,20.654065 23.098374,19.5955793 C24.1568598,18.5370935 24.1568598,16.8209858 23.098374,15.7625 L20.7981199,13.4622459 C20.2901423,12.9536585 19.6004065,12.6684451 18.8815549,12.6698171 Z" id="Shape" fill="#000000" fill-rule="nonzero"></path>
                                <path d="M18.1769817,15.2194106 C18.0331301,15.2196646 17.8950711,15.1627541 17.7932419,15.061128 L14.5412093,11.8090955 C14.3332825,11.5938008 14.3392276,11.2506606 14.5545224,11.0426829 C14.7645833,10.8398374 15.097561,10.8398374 15.3075711,11.0426829 L18.5596037,14.2947154 C18.7715447,14.5060976 18.7719512,14.8492886 18.5605691,15.0612297 C18.4586382,15.1634146 18.3201728,15.2207317 18.1758638,15.2204776 L18.1769817,15.2194106 Z" id="Path" fill="#000000"></path>
                                <path d="M11.1308943,6.54735772 C10.8732724,6.54740854 10.6512703,6.36615854 10.5997459,6.11377033 L9.51570122,0.693699187 C9.4558435,0.400355691 9.64512195,0.11402439 9.93846545,0.0541158537 C10.2318089,-0.00574186992 10.5181402,0.183536585 10.5780488,0.476880081 L11.6620427,5.89695122 C11.7205285,6.1902439 11.5303354,6.47550813 11.2370935,6.53434959 C11.2022358,6.54222561 11.1666667,6.54659553 11.1308943,6.54735772 Z" id="Path" fill="#000000"></path>
                                <path d="M7.87886179,7.08932927 C7.66346545,7.08922764 7.46854675,6.96153455 7.38236789,6.76412602 L5.21432927,1.88607724 C5.09278455,1.6125 5.21605691,1.2921748 5.48968496,1.17063008 C5.7632622,1.04908537 6.0835874,1.17235772 6.20513211,1.44598577 L8.37317073,6.32403455 C8.49288618,6.59837398 8.3675813,6.91783537 8.09324187,7.03760163 C8.02525407,7.06727642 7.95193089,7.08267276 7.87779472,7.0828252 L7.87886179,7.08932927 Z" id="Path" fill="#000000"></path>
                                <path d="M14.3829268,6.54735772 C14.3464939,6.54745935 14.3102134,6.54385163 14.2745427,6.53653455 C13.9813008,6.47769309 13.7911077,6.19242886 13.8495935,5.89913618 L14.9335874,0.479065041 C14.9882114,0.188414634 15.2681402,-0.00294715447 15.5587907,0.0516768293 C15.5628557,0.0524390244 15.5669207,0.0532520325 15.5709858,0.0541158537 C15.8642276,0.112957317 16.0544207,0.398221545 15.995935,0.691514228 L14.9119411,6.11158537 C14.8614837,6.36402439 14.6403963,6.54613821 14.3829268,6.54735772 Z" id="Path" fill="#000000"></path>
                                <path d="M17.6349593,7.08932927 C17.3356199,7.08856707 17.0935467,6.8453252 17.0943089,6.54598577 C17.0945122,6.47184959 17.1099085,6.39852642 17.1395833,6.33053862 L19.307622,1.45248984 C19.4291667,1.1789126 19.7494919,1.05564024 20.0230691,1.17713415 C20.2966463,1.29862805 20.4199187,1.61900407 20.2984248,1.8925813 L18.1303862,6.77063008 C18.042378,6.96519309 17.8484248,7.08993902 17.6349593,7.08932927 Z" id="Path" fill="#000000"></path>
                            </g>
                        </g>
                    </g>
                </g>
            </g>
        </g>
    </g>
</svg>