<?xml version="1.0" encoding="UTF-8"?>
<svg width="19px" height="21px" viewBox="0 0 19 21" version="1.1" xmlns="http://www.w3.org/2000/svg" xmlns:xlink="http://www.w3.org/1999/xlink">
    <!-- Generator: Sketch 52.2 (67145) - http://www.bohemiancoding.com/sketch -->
    <title>ord list</title>
    <desc>Created with Sketch.</desc>
    <g id="Page-1" stroke="none" stroke-width="1" fill="none" fill-rule="evenodd" opacity="0.897600446">
        <g id="Desktop" transform="translate(-550.000000, -415.000000)" fill="#D83E3E">
            <g id="toolbar" transform="translate(426.000000, 349.000000)">
                <g id="main" transform="translate(103.000000, 0.000000)">
                    <g id="buttons" transform="translate(21.000000, 30.000000)">
                        <g id="ord-list" transform="translate(0.000000, 36.000000)">
                            <g>
                                <polygon id="Path" points="19 2 8 2 8 3 19 3"></polygon>
                                <polygon id="Path" points="19 10 8 10 8 11 19 11"></polygon>
                                <polygon id="Path" points="8 19 19 19 19 18 18.6250936 18 8 18"></polygon>
                                <polygon id="1" points="3.53828125 8.45507812 3.53828125 1.30078125 3.50898437 1.30078125 1.3 2.87109375 1.3 1.58203125 3.5265625 0 4.82148437 0 4.82148437 8.45507812"></polygon>
                                <path d="M0.3,14.6367188 C0.3,13.8749962 0.574411318,13.2451197 1.12324219,12.7470703 C1.67207306,12.2490209 2.36640205,12 3.20625,12 C4.01094152,12 4.6808567,12.2265602 5.21601562,12.6796875 C5.75117455,13.1328148 6.01875,13.6953091 6.01875,14.3671875 C6.01875,14.8398461 5.88789193,15.2880838 5.62617187,15.7119141 C5.36445182,16.1357443 4.90742514,16.6816373 4.25507812,17.3496094 L2.13984375,19.4765625 L2.13984375,19.5058594 L6.15351562,19.5058594 L6.15351562,20.6132812 L0.3703125,20.6132812 L0.3703125,19.7226562 L3.42304687,16.6113281 C3.93867445,16.0722629 4.28437412,15.657228 4.46015625,15.3662109 C4.63593838,15.0751939 4.72382812,14.7636735 4.72382812,14.4316406 C4.72382812,14.0566388 4.573439,13.7382826 4.27265625,13.4765625 C3.9718735,13.2148424 3.60273656,13.0839844 3.16523437,13.0839844 C2.70429457,13.0839844 2.31855624,13.2314438 2.00800781,13.5263672 C1.69745938,13.8212905 1.5421875,14.1894509 1.5421875,14.6308594 L1.5421875,14.6484375 L0.3,14.6484375 L0.3,14.6367188 Z" id="2"></path>
                            </g>
                        </g>
                    </g>
                </g>
            </g>
        </g>
    </g>
</svg>