<?xml version="1.0" encoding="UTF-8"?>
<svg width="36px" height="36px" viewBox="0 0 36 36" version="1.1" xmlns="http://www.w3.org/2000/svg" xmlns:xlink="http://www.w3.org/1999/xlink">
    <!-- Generator: Sketch 52.2 (67145) - http://www.bohemiancoding.com/sketch -->
    <title>picture button</title>
    <desc>Created with Sketch.</desc>
    <g id="Page-1" stroke="none" stroke-width="1" fill="none" fill-rule="evenodd">
        <g id="Desktop" transform="translate(-437.000000, -306.000000)">
            <g id="picture-button" transform="translate(437.000000, 306.000000)">
                <rect id="Rectangle" stroke="#E0E0E0" fill="#FFFFFF" x="0.5" y="0.5" width="35" height="35" rx="6"></rect>
                <g id="picture" opacity="0.901157924" transform="translate(8.000000, 10.000000)" fill="#D83E3E" fill-rule="nonzero">
                    <path d="M0,0 L0,16 L20,16 L20,0 L0,0 Z M0.8,0.761904762 L19.2,0.761904762 L19.2,15.2380952 L0.8,15.2380952 L0.8,0.761904762 Z M1.6,1.52380952 L1.6,10.202381 C1.5890624,10.2529764 1.5890624,10.3065478 1.6,10.3571429 L1.6,14.4761905 L18.4,14.4761905 L18.4,12.6309524 C18.4109376,12.5803573 18.4109376,12.5267859 18.4,12.4761905 L18.4,1.52380952 L1.6,1.52380952 Z M2.4,2.28571429 L17.6,2.28571429 L17.6,11.6428571 L13.8875,8.10714286 C13.7984376,8.02380952 13.6734376,7.98363086 13.55,8 C13.4609376,8.00892876 13.3765624,8.04761905 13.3125,8.10714286 L11.6125,9.72619048 L7.5,5.45238095 C7.4078124,5.35714286 7.2718752,5.31101181 7.1375,5.33333333 C7.0578124,5.3437501 6.9843752,5.37797638 6.925,5.42857143 L2.4,9.4047619 L2.4,2.28571429 Z M14,4.19047619 C13.3375,4.19047619 12.8,4.70238095 12.8,5.33333333 C12.8,5.96428571 13.3375,6.47619048 14,6.47619048 C14.6625,6.47619048 15.2,5.96428571 15.2,5.33333333 C15.2,4.70238095 14.6625,4.19047619 14,4.19047619 Z M7.175,6.26190476 L11.0375,10.2738095 L10.1125,11.1547619 C9.9531252,11.3065478 9.9531252,11.5505954 10.1125,11.702381 C10.2718752,11.8541669 10.5281252,11.8541669 10.6875,11.702381 L11.825,10.6071429 C11.88125,10.574405 11.9281252,10.5297619 11.9625,10.4761905 L13.6,8.92857143 L17.6,12.7380952 L17.6,13.7142857 L2.4,13.7142857 L2.4,10.4642857 L7.175,6.26190476 Z" id="Shape"></path>
                </g>
            </g>
        </g>
    </g>
</svg>