<?xml version="1.0" encoding="UTF-8"?>
<svg width="19px" height="22px" viewBox="0 0 19 22" version="1.1" xmlns="http://www.w3.org/2000/svg" xmlns:xlink="http://www.w3.org/1999/xlink">
    <!-- Generator: Sketch 52.2 (67145) - http://www.bohemiancoding.com/sketch -->
    <title>unord list</title>
    <desc>Created with Sketch.</desc>
    <g id="Page-1" stroke="none" stroke-width="1" fill="none" fill-rule="evenodd" opacity="0.897600446">
        <g id="Desktop" transform="translate(-589.000000, -414.000000)" fill="#D83E3E">
            <g id="toolbar" transform="translate(426.000000, 349.000000)">
                <g id="main" transform="translate(103.000000, 0.000000)">
                    <g id="buttons" transform="translate(21.000000, 30.000000)">
                        <g id="unord-list" transform="translate(38.000000, 35.000000)">
                            <g transform="translate(0.700000, 0.000000)">
                                <g id="XMLID_155_" transform="translate(0.300000, 8.000000)" fill-rule="nonzero">
                                    <path d="M2.80320421,5.56570209 C1.26757532,5.56570209 0.0181731229,4.32637571 0.0136298422,2.80313093 C0.0136298422,2.06854839 0.304399809,1.37452562 0.831420373,0.851755218 C1.35844094,0.32898482 2.05810617,0.0405597723 2.79866093,0.0405597723 C4.33428981,0.0405597723 5.58369201,1.27988615 5.58823529,2.80313093 C5.58823529,3.53771347 5.29746533,4.23173624 4.77044476,4.75450664 C4.2434242,5.27727704 3.54375897,5.56570209 2.80320421,5.56570209 Z M2.80320421,0.85626186 C2.28072692,0.85626186 1.79005261,1.05906072 1.41750359,1.42860531 C1.04495457,1.79814991 0.840506934,2.28486717 0.840506934,2.80313093 C0.840506934,3.87571157 1.7219034,4.75 2.80320421,4.75 L2.80320421,5.16010436 L2.80320421,4.75 C3.32568149,4.75 3.81635581,4.54720114 4.18890483,4.17765655 C4.56145385,3.80811195 4.76590148,3.32139469 4.76590148,2.80313093 C4.76590148,1.73055028 3.88450502,0.85626186 2.80320421,0.85626186 Z" id="Shape"></path>
                                </g>
                                <path d="M3.09184045,5.58823529 C3.09184045,5.58823529 3.09639484,5.58823529 3.09184045,5.58823529 C3.83876025,5.58823529 4.54013615,5.29651665 5.06844528,4.7677766 C5.5967544,4.23903656 5.88823529,3.53708857 5.88823529,2.79411765 C5.88823529,1.25347855 4.63577832,0 3.09184045,0 C2.34947505,0 1.64809914,0.291718645 1.11979002,0.820458689 C0.591480896,1.34919873 0.3,2.05114672 0.3,2.79411765 C0.3,4.33475674 1.55245697,5.58823529 3.09184045,5.58823529 Z M1.70275181,1.40389598 C2.07621171,1.03013147 2.56808572,0.825016793 3.09184045,0.825016793 C4.17578503,0.825016793 5.0593365,1.70928894 5.0593365,2.79411765 C5.0593365,3.31829959 4.85438899,3.8105748 4.4809291,4.18433931 C4.1074692,4.55810383 3.61559519,4.7632185 3.09184045,4.7632185 L3.09184045,5.17800595 L3.09184045,4.7632185 C2.00789587,4.7632185 1.12434441,3.87894636 1.12434441,2.79411765 C1.12434441,2.26993571 1.32929191,1.77766049 1.70275181,1.40389598 Z" id="Shape" fill-rule="nonzero"></path>
                                <path d="M3.09411765,16 C2.35114672,16 1.64919873,16.2917186 1.12045869,16.8204587 C0.591718645,17.3491987 0.3,18.0511467 0.3,18.7941176 C0.3,20.3347567 1.55347855,21.5882353 3.09411765,21.5882353 C4.63475674,21.5882353 5.88823529,20.3301986 5.88823529,18.7895595 C5.88823529,17.2534786 4.63475674,16 3.09411765,16 Z M3.09867575,20.7632185 L3.09867575,21.1780059 L3.09867575,20.7632185 C2.01384704,20.7632185 1.1295749,19.8789464 1.1295749,18.7941176 C1.1295749,18.2699357 1.33468957,17.7776605 1.70845408,17.403896 C2.0822186,17.0301315 2.57449381,16.8250168 3.09867575,16.8250168 C4.18350446,16.8250168 5.0677766,17.7092889 5.0677766,18.7941176 C5.0632185,19.8789464 4.18350446,20.7632185 3.09867575,20.7632185 Z" id="Shape" fill-rule="nonzero"></path>
                                <polygon id="Path" points="19.3 3 8.3 3 8.3 4 19.3 4"></polygon>
                                <polygon id="Path" points="19.3 11 8.3 11 8.3 12 19.3 12"></polygon>
                                <polygon id="Path" points="8.30411831 20 19.3 20 19.3 19 8.3 19.0054945"></polygon>
                            </g>
                        </g>
                    </g>
                </g>
            </g>
        </g>
    </g>
</svg>