<?xml version="1.0" encoding="UTF-8"?>
<svg width="244px" height="63px" viewBox="0 0 244 63" version="1.1" xmlns="http://www.w3.org/2000/svg" xmlns:xlink="http://www.w3.org/1999/xlink">
    <!-- Generator: Sketch 52.2 (67145) - http://www.bohemiancoding.com/sketch -->
    <title>link</title>
    <desc>Created with Sketch.</desc>
    <defs>
        <path d="M206.441107,-2.13162821e-14 C204.683317,-2.13162821e-14 201.6356,7.99945571 194.883406,7.99945571 C191.727321,7.99945571 11.0320084,7.99945571 8.44173399,7.99945571 C6.50399945,7.99945571 4.15656274,8.85410762 2.35487556,10.790917 C1.07280942,12.169135 0.287850894,13.8685268 1.13891568e-13,15.8890924 L0.037364852,47.5641553 C0.119439158,49.7128853 0.904397679,51.4893753 2.39224042,52.8936252 C3.88008315,54.2978751 5.61897694,55 7.60892178,55 L226.907982,55 C229.613914,54.844178 231.744439,54.142053 233.299556,52.8936252 C234.854672,51.6451973 235.767276,49.8687073 236.037365,47.5641553 L236,15.8890924 C236,13.7488693 235.450386,12.0494775 234.351157,10.790917 C232.702314,8.90307627 230.144304,7.99945571 227.799462,7.99945571 C227.232076,7.99945571 218.893331,7.99945571 218.340427,7.99945571 C211.77314,7.99945571 208.077649,-2.13162821e-14 206.441107,-2.13162821e-14 Z" id="path-1"></path>
        <filter x="-3.4%" y="-7.3%" width="106.8%" height="129.1%" filterUnits="objectBoundingBox" id="filter-2">
            <feMorphology radius="0.5" operator="erode" in="SourceAlpha" result="shadowSpreadOuter1"></feMorphology>
            <feOffset dx="0" dy="4" in="shadowSpreadOuter1" result="shadowOffsetOuter1"></feOffset>
            <feGaussianBlur stdDeviation="2.5" in="shadowOffsetOuter1" result="shadowBlurOuter1"></feGaussianBlur>
            <feComposite in="shadowBlurOuter1" in2="SourceAlpha" operator="out" result="shadowBlurOuter1"></feComposite>
            <feColorMatrix values="0 0 0 0 0   0 0 0 0 0   0 0 0 0 0  0 0 0 0.3 0" type="matrix" in="shadowBlurOuter1"></feColorMatrix>
        </filter>
    </defs>
    <g id="Page-1" stroke="none" stroke-width="1" fill="none" fill-rule="evenodd">
        <g id="Desktop" transform="translate(-422.000000, -357.000000)">
            <g id="toolbar" transform="translate(426.000000, 349.000000)">
                <g id="pic-link" transform="translate(0.000000, 8.000000)">
                    <g id="link" transform="translate(118.018682, 27.500000) scale(-1, 1) translate(-118.018682, -27.500000) ">
                        <use fill="black" fill-opacity="1" filter="url(#filter-2)" xlink:href="#path-1"></use>
                        <path stroke="#E0E0E0" stroke-width="1" d="M206.441107,0.5 C206.255998,0.5 205.85893,0.828056461 205.223905,1.57402174 C205.351994,1.42355499 203.539219,3.64147722 202.904427,4.33683379 C200.450065,7.02536447 197.968085,8.49945571 194.883406,8.49945571 C194.24234,8.49945571 194.24234,8.49945571 192.305072,8.49945571 C189.76291,8.49945571 189.76291,8.49945571 186.097372,8.49945571 C177.210856,8.49945571 177.210856,8.49945571 164.867801,8.49945571 C136.033845,8.49945571 136.033845,8.49945571 101.669427,8.49945571 C98.9692181,8.49945571 98.9692181,8.49945571 96.2716923,8.49945571 C63.3991059,8.49945571 63.3991059,8.49945571 36.2868807,8.49945571 C24.7394971,8.49945571 24.7394971,8.49945571 16.4895265,8.49945571 C13.0988888,8.49945571 13.0988888,8.49945571 10.7647697,8.49945571 C8.99760412,8.49945571 8.99760412,8.49945571 8.44173399,8.49945571 C6.45717202,8.49945571 4.30314537,9.43063311 2.72096855,11.1314694 C1.50999541,12.4332626 0.768754865,14.0380074 0.499999652,15.8885026 L0.537000504,47.5450709 C0.614142589,49.5646739 1.34421848,51.2169554 2.7354314,52.5300045 C4.13117801,53.8473326 5.74758436,54.5 7.60892178,54.5 L226.879237,54.500827 C229.488323,54.3505819 231.520027,53.6810236 232.986546,52.5037214 C234.434652,51.3412007 235.285361,49.6851947 235.537365,47.5647452 L235.5,15.8890924 C235.5,13.8627747 234.98824,12.2804282 233.97457,11.1198282 C232.516616,9.45054523 230.171839,8.49945571 227.799462,8.49945571 C227.343837,8.49945571 227.343837,8.49945571 226.159874,8.49945571 C224.733282,8.49945571 224.733282,8.49945571 223.064513,8.49945571 C221.396198,8.49945571 221.396198,8.49945571 219.971869,8.49945571 C218.791073,8.49945571 218.791073,8.49945571 218.340427,8.49945571 C215.338494,8.49945571 212.793676,7.02634652 210.183691,4.34873056 C209.748538,3.90230171 209.332446,3.44643435 208.81811,2.86112548 C208.672603,2.69553957 208.116854,2.05840703 208.226828,2.18429421 C208.002658,1.92768731 207.844953,1.74928806 207.696666,1.58555624 C207.018422,0.836667415 206.602084,0.5 206.441107,0.5 Z" stroke-linejoin="square" fill="#FFFFFF" fill-rule="evenodd"></path>
                    </g>
                </g>
            </g>
        </g>
    </g>
</svg>